<svg width="70" height="70" viewBox="0 0 70 70" fill="none" xmlns="http://www.w3.org/2000/svg">
    <circle cx="35" cy="35" r="35" fill="#356C07" fill-opacity="0.07"/>
    <path d="M45.3529 42.9594C44.4172 42.9594 43.5683 42.9652 42.7194 42.9594C41.9572 42.9535 41.6102 42.6336 41.6102 41.9181C41.604 38.5036 41.604 35.0833 41.6102 31.6687C41.6102 30.9242 41.9448 30.6101 42.7566 30.6042C43.5807 30.5926 44.4048 30.6042 45.229 30.6042C45.4025 26.2299 40.439 21.8556 35.2897 21.7625C28.901 21.6462 24.9166 26.5324 24.7431 30.6042C25.5239 30.6042 26.3109 30.5984 27.0916 30.6042C28.0955 30.6101 28.3805 30.8835 28.3805 31.8316C28.3805 35.1531 28.3805 38.4687 28.3805 41.7902C28.3805 42.686 28.0769 42.9652 27.104 42.971C26.1064 42.971 25.1087 42.971 24.1111 42.971C23.0515 42.971 22.8036 42.7441 22.7602 41.7378C22.754 41.6622 22.7416 41.5866 22.7292 41.4935C22.3884 41.4644 22.0538 41.4644 21.7378 41.3946C20.3312 41.0921 19.631 40.144 19.2901 38.9224C18.9245 37.5962 18.9121 36.2525 19.2096 34.9146C19.6433 32.9834 20.5728 32.2388 22.7478 32.0352C22.6983 28.2077 24.1606 24.9967 27.3519 22.5536C29.7376 20.7271 32.5012 19.8895 35.5747 20.0117C42.1865 20.2792 47.5961 25.6541 47.2801 32.0119C47.311 32.0294 47.3482 32.0643 47.3792 32.0643C49.2258 32.1515 50.2606 32.9194 50.713 34.5946C51.0724 35.9209 51.091 37.2646 50.7873 38.6025C50.3474 40.5453 49.4117 41.3074 47.2305 41.4993C47.2305 42.1857 47.2305 42.8837 47.2305 43.576C47.2243 46.3797 45.2538 48.2353 42.267 48.2411C41.4987 48.2411 40.7241 48.2237 39.9557 48.2528C39.7574 48.2586 39.4786 48.3924 39.3856 48.5436C38.7784 49.5383 37.8799 50.0153 36.6653 49.9978C36.0829 49.992 35.5004 50.0095 34.9179 49.992C33.3688 49.9455 32.1666 48.7705 32.1852 47.3337C32.2038 45.9144 33.3873 44.7742 34.9117 44.7277C35.5561 44.7103 36.2006 44.7161 36.845 44.7277C37.9294 44.7452 38.7784 45.1931 39.2927 46.083C39.4848 46.4146 39.6955 46.5019 40.0672 46.4902C40.7922 46.4611 41.5234 46.4844 42.2484 46.4844C44.2004 46.4786 45.3405 45.4025 45.3405 43.5643C45.3529 43.384 45.3529 43.2095 45.3529 42.9594ZM26.4534 41.191C26.4534 38.2244 26.4534 35.3101 26.4534 32.4017C25.8337 32.4017 25.2574 32.4017 24.6812 32.4017C24.6812 35.3567 24.6812 38.2709 24.6812 41.191C25.2884 41.191 25.8523 41.191 26.4534 41.191ZM43.5249 32.3959C43.5249 35.345 43.5249 38.2593 43.5249 41.1736C44.1446 41.1736 44.7209 41.1736 45.3034 41.1736C45.3034 38.2302 45.3034 35.3159 45.3034 32.3959C44.6899 32.3959 44.1198 32.3959 43.5249 32.3959ZM22.723 39.6554C22.723 37.7067 22.723 35.8046 22.723 33.9083C21.9361 33.7686 21.5023 33.9548 21.2421 34.6528C20.7277 36.0431 20.7339 37.4508 21.2359 38.841C21.4899 39.539 21.8741 39.7135 22.723 39.6554ZM47.2615 39.6495C47.9245 39.7775 48.4202 39.5797 48.6433 39.0446C49.2939 37.538 49.2877 35.9965 48.6619 34.4841C48.4326 33.9315 47.9245 33.7279 47.2615 33.8792C47.2615 35.8046 47.2615 37.7125 47.2615 39.6495ZM35.9837 46.4786C35.6553 46.4786 35.3207 46.4611 34.9923 46.4786C34.4532 46.5135 34.0876 46.8625 34.0752 47.3279C34.0628 47.799 34.4222 48.1888 34.9489 48.212C35.6119 48.2411 36.2749 48.2469 36.9318 48.2062C37.4523 48.1771 37.7559 47.8572 37.7807 47.3628C37.8117 46.8974 37.4399 46.5193 36.9132 46.4728C36.6034 46.4611 36.2935 46.4786 35.9837 46.4786Z" fill="#356C07"/>
</svg>
