<svg width="70" height="70" viewBox="0 0 70 70" fill="none" xmlns="http://www.w3.org/2000/svg">
    <circle cx="35" cy="35" r="35" fill="#356C07" fill-opacity="0.07"/>
    <path d="M25.3158 47.5512C25.0499 47.0609 24.8255 46.7202 24.6676 46.3463C24.5014 45.9391 24.2521 45.7812 23.8033 45.7978C22.8643 45.8393 21.9252 45.8061 20.9861 45.8144C20.4626 45.8144 20.0637 45.6482 20.0637 45.0582C20.0637 44.4681 20.4875 44.2936 20.9945 44.2853C21.9252 44.277 22.8643 44.2853 23.8532 44.2853C23.7535 43.6787 23.6704 43.1551 23.5789 42.5817C21.5845 42.5817 19.6066 42.5817 17.6288 42.5817C17.3712 42.5817 17.1219 42.5817 16.8643 42.5817C16.3573 42.5734 16 42.349 16 41.8255C16 41.3019 16.349 41.0609 16.8476 41.0609C18.3934 41.0526 19.9474 41.0609 21.4931 41.0526C22.1745 41.0526 22.856 41.0526 23.5623 41.0526C23.6537 40.4792 23.7452 39.9557 23.8449 39.349C22.9474 39.349 22.0831 39.349 21.2271 39.349C20.6704 39.349 20.0803 39.3407 20.0554 38.5928C20.0305 37.8366 20.6122 37.8116 21.1856 37.8199C21.9751 37.8283 22.7645 37.7867 23.5457 37.8366C24.1524 37.8781 24.5596 37.7202 24.759 37.1053C24.8587 36.7978 25.0665 36.5319 25.3075 36.0914C24.7175 36.0914 24.2271 36.0997 23.7368 36.0914C23.2216 36.0831 22.8144 35.9003 22.831 35.3019C22.8393 34.7535 23.2299 34.5873 23.7119 34.5623C23.8116 34.5623 23.9114 34.5623 24.0194 34.5623C26.7452 34.5291 26.7535 34.5374 28.831 32.9418C29.0139 32.8006 29.097 32.4266 29.097 32.1607C29.1136 28.3463 29.1053 24.5402 29.1053 20.7258C29.1053 18.8227 29.928 18.0083 31.8476 18C38.6537 18 45.4681 18 52.2742 18C54.2022 18 55 18.8061 55 20.7258C55 27.5319 55 34.3463 55 41.1524C55 43.0554 54.1773 43.8781 52.2493 43.8781C49.5817 43.8781 46.9141 43.8864 44.2465 43.8698C43.7479 43.8698 43.5069 43.9778 43.349 44.518C41.2548 51.6814 32.795 54.2327 27.0609 49.4626C26.795 49.2465 26.3961 49.1219 26.0554 49.0886C25.374 49.0305 24.6842 49.072 24.0028 49.072C23.446 49.072 22.8476 49.0637 22.831 48.3158C22.8144 47.5596 23.4044 47.5346 23.9612 47.5429C24.3767 47.5596 24.7756 47.5512 25.3158 47.5512ZM46.349 19.5374C46.349 19.9197 46.349 20.1939 46.349 20.4681C46.349 22.7285 46.3657 24.9889 46.3324 27.2493C46.3241 27.6814 46.2078 28.3296 45.9169 28.4875C45.6427 28.6454 45.0443 28.3712 44.6621 28.1468C43.9224 27.7064 43.2244 27.1911 42.5346 26.6759C42.1939 26.4183 41.9529 26.4017 41.6039 26.6676C40.831 27.2493 40.0416 27.8061 39.2271 28.313C38.9446 28.4875 38.4626 28.6371 38.2133 28.5125C37.9723 28.3878 37.7895 27.9058 37.7895 27.5734C37.7562 25.1884 37.7729 22.795 37.7729 20.41C37.7729 20.1357 37.7729 19.8698 37.7729 19.5291C35.7368 19.5291 33.7839 19.5291 31.831 19.5291C30.8006 19.5291 30.6343 19.6953 30.6343 20.7175C30.6343 23.892 30.6343 27.0665 30.6343 30.241C30.6343 30.8476 30.6343 31.4543 30.6343 32.144C34.0166 31.2798 37.108 31.7285 39.8338 33.8643C42.5596 35.9917 43.7895 38.8587 43.7562 42.3241C44.0637 42.3407 44.313 42.3573 44.5623 42.3573C47.1053 42.3573 49.6399 42.3573 52.1828 42.3573C53.313 42.3573 53.4709 42.2078 53.4709 41.0942C53.4709 35.7839 53.4709 30.4737 53.4709 25.1634C53.4709 23.6177 53.4626 22.0637 53.4709 20.518C53.4709 19.9695 53.338 19.5374 52.6898 19.5374C50.6288 19.5374 48.5429 19.5374 46.349 19.5374ZM33.6427 50.3684C38.3629 50.3767 42.1939 46.5873 42.2188 41.8837C42.2438 37.1219 38.4377 33.2742 33.6925 33.2659C28.964 33.2659 25.1413 37.0554 25.1163 41.759C25.0997 46.5208 28.8892 50.3601 33.6427 50.3684ZM39.3019 19.5623C39.3019 20.759 39.3019 21.8726 39.3019 22.9861C39.3019 24.0831 39.3019 25.1801 39.3019 26.4266C39.8753 26.0277 40.3075 25.7285 40.7396 25.4294C42.0693 24.5069 42.0609 24.5069 43.3657 25.4044C43.8144 25.7119 44.2632 26.0277 44.8199 26.41C44.8199 25.1219 44.8199 24.0083 44.8199 22.8947C44.8199 21.7895 44.8199 20.6842 44.8199 19.554C42.9418 19.5623 41.1717 19.5623 39.3019 19.5623Z" fill="#356C07"/>
    <path d="M19.8142 34.5708C19.914 34.5708 20.0137 34.5708 20.1217 34.5708C20.6702 34.5708 21.1937 34.6456 21.1854 35.3437C21.1771 36.0417 20.6369 36.0999 20.0968 36.0999C19.8142 36.0999 19.54 36.1082 19.2574 36.0916C18.7671 36.0666 18.4098 35.8672 18.4181 35.3187C18.4264 34.7702 18.8004 34.5874 19.2824 34.5708C19.4652 34.5708 19.6397 34.5708 19.8142 34.5708Z" fill="#356C07"/>
    <path d="M19.8975 47.5594C20.3545 47.6092 21.1025 47.3682 21.1856 48.2907C21.2437 48.8724 20.8199 49.0884 19.7479 49.0884C19.5734 49.0884 19.3906 49.0968 19.216 49.0801C18.7257 49.0303 18.385 48.7976 18.4183 48.2574C18.4515 47.7588 18.7922 47.576 19.2493 47.5594C19.4321 47.551 19.6066 47.5594 19.8975 47.5594Z" fill="#356C07"/>
    <path d="M40.6732 41.8338C40.6649 45.6898 37.4904 48.8477 33.6178 48.8228C29.7951 48.8061 26.6538 45.6399 26.6621 41.8089C26.6704 37.9529 29.8533 34.7867 33.7175 34.8117C37.5402 34.8366 40.6732 38.0028 40.6732 41.8338ZM33.6344 47.2937C36.6427 47.3103 39.1275 44.8505 39.1441 41.8505C39.1607 38.8421 36.7009 36.3574 33.7009 36.3324C30.7009 36.3158 28.2078 38.7757 28.1912 41.7757C28.1746 44.7923 30.6261 47.2854 33.6344 47.2937Z" fill="#356C07"/>
    <path d="M34.4313 41.0525C34.8967 41.0525 35.2956 41.0525 35.6945 41.0525C36.2263 41.0525 36.6003 41.2603 36.592 41.842C36.5837 42.3822 36.2263 42.5816 35.7277 42.5816C35.0712 42.5816 34.4147 42.5899 33.7499 42.5816C33.1931 42.5733 32.9105 42.2658 32.9105 41.7257C32.9022 40.7367 32.9022 39.7478 32.9105 38.7672C32.9105 38.252 33.1848 37.9279 33.6917 37.9362C34.1986 37.9445 34.4396 38.3018 34.4396 38.8088C34.4313 39.5234 34.4313 40.2464 34.4313 41.0525Z" fill="#356C07"/>
</svg>
