<svg width="48" height="48" viewBox="0 0 48 48" fill="none" xmlns="http://www.w3.org/2000/svg">
    <circle opacity="0.2" cx="24" cy="24" r="24" fill="#E10000"/>
    <ellipse opacity="0.7" cx="23.9996" cy="24.5454" rx="19.6364" ry="19.0909" fill="#E10000"/>
    <path d="M32.2365 28.091L29.8052 25.6596C28.9368 24.7913 27.4607 25.1386 27.1133 26.2674C26.8528 27.049 25.9845 27.4831 25.203 27.3094C23.4663 26.8753 21.1218 24.6176 20.6876 22.7941C20.4271 22.0126 20.9481 21.1442 21.7296 20.8838C22.8585 20.5364 23.2058 19.0602 22.3375 18.1919L19.9061 15.7606C19.2115 15.1527 18.1695 15.1527 17.5616 15.7606L15.9118 17.4104C14.262 19.1471 16.0855 23.7493 20.1666 27.8304C24.2478 31.9116 28.85 33.822 30.5867 32.0853L32.2365 30.4355C32.8444 29.7408 32.8444 28.6988 32.2365 28.091Z" fill="white"/>
</svg>
