<svg width="70" height="70" viewBox="0 0 70 70" fill="none" xmlns="http://www.w3.org/2000/svg">
    <circle cx="35" cy="35" r="35" fill="#356C07" fill-opacity="0.07"/>
    <path d="M38.2756 48.0969C35.6624 50.2058 33.5135 49.8734 31.3416 48.0854C31.015 48.498 30.6941 48.9107 30.3674 49.329C29.4906 50.4579 28.6253 51.5983 27.7199 52.7043C27.548 52.9163 27.2041 53.1169 26.9635 53.0882C26.7744 53.071 26.5566 52.71 26.4764 52.4636C26.1268 51.3633 25.8231 50.2459 25.4793 49.0711C24.3389 49.2144 23.2386 49.3806 22.1269 49.478C21.6512 49.5181 21.0495 49.8505 20.7 49.2889C20.3275 48.6929 20.9464 48.3605 21.2329 47.9823C22.2128 46.6757 23.2271 45.3978 24.2586 44.0683C24.0925 43.9766 23.9721 43.9021 23.8403 43.8391C21.5596 42.8363 20.6197 41.1286 21.0381 38.6644C21.2157 37.61 21.4335 36.5556 21.6398 35.5069C21.9664 33.8278 21.4908 32.2233 21.1985 30.6015C21.0782 29.9253 20.9922 29.2319 20.9693 28.5443C20.9235 26.9684 21.6226 25.7478 22.9979 25.0257C23.9836 24.51 25.0437 24.1203 26.1039 23.7879C27.6339 23.3123 28.9634 22.5616 30.1095 21.4441C30.7514 20.8252 31.4333 20.235 32.1611 19.7192C33.9547 18.4528 35.651 18.4585 37.4446 19.7307C38.1896 20.2579 38.883 20.8711 39.542 21.5014C40.6652 22.5788 41.9546 23.3237 43.4445 23.765C44.2583 24.0057 45.0663 24.275 45.8399 24.6131C48.1035 25.616 48.9631 27.2434 48.5619 29.6904C48.4989 30.0629 48.4645 30.4468 48.3499 30.8078C47.5476 33.3637 47.9946 35.8736 48.4874 38.418C49.0375 41.2432 48.178 42.7102 45.5419 43.9136C45.4846 43.9365 45.4445 43.9938 45.3413 44.0741C46.3614 45.3864 47.3814 46.6757 48.3728 47.9938C48.6479 48.3605 49.2209 48.6757 48.9115 49.2488C48.5848 49.8562 47.9831 49.5238 47.5075 49.4837C46.3958 49.3863 45.2898 49.2144 44.115 49.0654C43.7998 50.1656 43.5133 51.2373 43.1695 52.2917C43.0663 52.6011 42.8428 53.0309 42.6021 53.0825C42.3672 53.1341 41.9775 52.8246 41.7769 52.5782C40.5964 51.0997 39.4389 49.5926 38.2756 48.0969ZM47.4731 39.6157C47.4215 39.2203 47.3814 38.8191 47.3127 38.4237C47.0032 36.6243 46.4301 34.8536 46.7511 32.9912C46.9402 31.9138 47.1694 30.8422 47.3585 29.7649C47.7596 27.5414 47.1293 26.3953 45.0319 25.5587C44.413 25.3122 43.7712 25.1059 43.1293 24.9168C41.4159 24.424 39.9489 23.5415 38.6595 22.3152C37.9719 21.6504 37.2269 21.0315 36.4361 20.4986C35.3759 19.7823 34.2241 19.7823 33.1639 20.4986C32.3903 21.0201 31.6568 21.6218 30.9863 22.2693C29.6568 23.5587 28.1153 24.4297 26.3446 24.9684C25.4105 25.2492 24.4879 25.6102 23.6111 26.0457C22.6082 26.5443 22.1154 27.4325 22.1613 28.5672C22.1785 29.0371 22.2128 29.507 22.2931 29.9654C22.5911 31.7419 23.1698 33.4897 22.8604 35.3292C22.6713 36.4295 22.4421 37.524 22.2472 38.6186C21.8461 40.8478 22.4707 41.9824 24.5738 42.8191C25.1927 43.0655 25.8288 43.2832 26.4764 43.4666C28.1669 43.948 29.6224 44.8018 30.8946 46.0225C31.5708 46.67 32.2929 47.2774 33.0608 47.8161C34.2012 48.6127 35.4275 48.6127 36.5679 47.8161C37.3358 47.2832 38.0578 46.67 38.734 46.0225C40.0005 44.8018 41.4675 43.9652 43.1523 43.4609C44.0462 43.1916 44.9345 42.8649 45.7769 42.4695C46.9516 41.9251 47.5476 40.9624 47.4731 39.6157ZM30.4304 47.3004C29.0895 45.7646 27.4276 44.8878 25.4735 44.4408C24.528 45.6557 23.5824 46.8763 22.5395 48.2173C23.6283 48.0854 24.5337 47.9823 25.4391 47.8734C26.2586 47.776 26.3732 47.8505 26.6082 48.67C26.8431 49.4894 27.0781 50.3089 27.3531 51.2544C28.4362 49.8677 29.4276 48.5897 30.4304 47.3004ZM47.0605 48.223C46.0577 46.9336 45.1637 45.776 44.2525 44.6299C44.178 44.5382 43.9775 44.4752 43.8629 44.5039C42.0348 44.9795 40.4245 45.8219 39.1638 47.3176C40.1724 48.6127 41.1695 49.8906 42.2411 51.2659C42.5276 50.2631 42.7912 49.392 43.0262 48.521C43.1752 47.9708 43.4732 47.7645 44.0577 47.862C45.0032 48.0052 45.9488 48.0912 47.0605 48.223Z" fill="#356C07"/>
    <path d="M45.4493 34.1774C45.4779 40.0283 40.7445 44.8019 34.865 44.8477C28.9682 44.8936 24.2061 40.1831 24.1431 34.2519C24.0858 28.3896 28.8536 23.5702 34.7618 23.5243C40.607 23.4728 45.4264 28.275 45.4493 34.1774ZM44.2745 34.1087C44.137 28.785 39.8448 24.596 34.6472 24.7163C29.4324 24.8366 25.2032 29.1689 25.3179 34.2806C25.4382 39.6043 29.7189 43.7704 34.9452 43.6558C40.1829 43.5297 44.4063 39.2089 44.2745 34.1087Z" fill="#356C07"/>
    <path d="M38.4413 35.507C38.8023 36.613 39.1404 37.6789 39.49 38.7333C39.6963 39.3465 39.6562 39.8909 39.0946 40.2863C38.5559 40.6702 38.0459 40.5155 37.553 40.1545C36.7966 39.5986 36.0115 39.0771 35.2837 38.4926C34.9113 38.1946 34.6591 38.2233 34.2981 38.5041C33.5589 39.0829 32.7795 39.6101 32.0231 40.1659C31.5245 40.5327 31.0088 40.6645 30.4815 40.2806C29.9601 39.9023 29.8856 39.3866 30.0919 38.7849C30.4128 37.8565 30.6878 36.9167 31.0145 35.9884C31.1348 35.6388 31.0833 35.4268 30.7681 35.209C30.0288 34.7105 29.3125 34.1718 28.5905 33.6446C27.8283 33.0887 27.6048 32.636 27.8111 32.04C28.0804 31.2721 28.7165 31.2206 29.3985 31.232C30.2924 31.2492 31.1864 31.2607 32.0804 31.2148C32.2924 31.2034 32.5961 30.9799 32.6706 30.7793C33.0145 29.8624 33.301 28.9226 33.599 27.9828C33.7881 27.404 34.1204 26.9799 34.7737 26.9685C35.4671 26.957 35.811 27.3868 36.0058 27.9943C36.2923 28.8882 36.6075 29.7707 36.8596 30.6704C36.9857 31.1174 37.2092 31.2549 37.6677 31.2377C38.6075 31.1976 39.5473 31.232 40.4814 31.2263C41.1003 31.2206 41.5874 31.4269 41.7879 32.0515C41.9885 32.6761 41.7077 33.1288 41.2091 33.4841C40.3037 34.1489 39.404 34.8079 38.4413 35.507ZM38.235 39.1746C38.2751 39.1516 38.3152 39.1287 38.3553 39.1115C38.0287 38.1029 37.702 37.1001 37.3754 36.0915C37.043 35.06 37.043 35.0543 37.8969 34.4297C38.4012 34.0629 38.9112 33.6962 39.4155 33.3237C39.7593 33.0715 40.0974 32.8079 40.4355 32.55C39.5072 32.4125 38.6419 32.4125 37.7708 32.4125C35.9771 32.4068 36.2408 32.5558 35.7021 30.9226C35.4213 30.0744 35.1348 29.2263 34.854 28.3782C34.4757 29.1346 34.2408 29.8796 33.9944 30.6131C33.2895 32.6704 33.7537 32.3953 31.5474 32.4182C31.1463 32.424 30.7452 32.4182 30.3383 32.4182C29.9543 32.4182 29.5704 32.4182 29.1864 32.4182C29.9543 33.1689 30.7452 33.742 31.5302 34.3208C32.5445 35.06 32.5388 35.0543 32.1606 36.2233C31.8511 37.1861 31.5474 38.1488 31.1749 39.3006C32.2867 38.4926 33.2379 37.8336 34.1548 37.1288C34.6018 36.7849 34.9686 36.7906 35.4098 37.1345C36.3496 37.8336 37.3009 38.4984 38.235 39.1746Z" fill="#356C07"/>
</svg>
