<svg width="10" height="10" viewBox="0 0 10 10" fill="none" xmlns="http://www.w3.org/2000/svg">
    <path fill-rule="evenodd" clip-rule="evenodd" d="M0.891976 5C0.937514 5.07869 0.997884 5.17898 1.07267 5.29478C1.26476 5.59221 1.54924 5.98775 1.91856 6.38169C2.6648 7.17768 3.70813 7.91667 5 7.91667C6.29187 7.91667 7.3352 7.17768 8.08144 6.38169C8.45076 5.98775 8.73523 5.59221 8.92733 5.29478C9.00212 5.17898 9.06249 5.07869 9.10802 5C9.06249 4.92131 9.00212 4.82102 8.92733 4.70522C8.73523 4.40779 8.45076 4.01225 8.08144 3.61831C7.3352 2.82232 6.29187 2.08333 5 2.08333C3.70813 2.08333 2.6648 2.82232 1.91856 3.61831C1.54924 4.01225 1.26476 4.40779 1.07267 4.70522C0.997884 4.82102 0.937514 4.92131 0.891976 5ZM9.58333 5C9.95601 4.81366 9.95594 4.81352 9.95586 4.81337L9.95519 4.81203L9.95375 4.80918L9.94903 4.79993C9.94505 4.7922 9.93943 4.78138 9.93219 4.76768C9.91769 4.74029 9.89666 4.70135 9.86918 4.6525C9.81425 4.55485 9.73339 4.4173 9.62736 4.25311C9.4158 3.92555 9.10132 3.48775 8.68939 3.04836C7.87313 2.17768 6.62479 1.25 5 1.25C3.3752 1.25 2.12687 2.17768 1.31061 3.04836C0.898681 3.48775 0.584194 3.92555 0.37264 4.25311C0.266604 4.4173 0.185747 4.55485 0.130821 4.6525C0.103343 4.70135 0.0823084 4.74029 0.0678139 4.76768C0.0605653 4.78138 0.054948 4.7922 0.0509741 4.79993L0.0462458 4.80918L0.0448079 4.81203L0.0443209 4.813C0.0442443 4.81315 0.0439887 4.81366 0.416667 5L0.0439887 4.81366C-0.0146629 4.93096 -0.0146629 5.06904 0.0439887 5.18634L0.416667 5C0.0439887 5.18634 0.0439121 5.18619 0.0439887 5.18634L0.0448079 5.18797L0.0462458 5.19082L0.0509741 5.20007C0.054948 5.2078 0.0605653 5.21862 0.0678139 5.23232C0.0823084 5.25971 0.103343 5.29865 0.130821 5.3475C0.185747 5.44515 0.266604 5.5827 0.37264 5.74689C0.584194 6.07445 0.898681 6.51225 1.31061 6.95164C2.12687 7.82232 3.3752 8.75 5 8.75C6.62479 8.75 7.87313 7.82232 8.68939 6.95164C9.10132 6.51225 9.4158 6.07445 9.62736 5.74689C9.73339 5.5827 9.81425 5.44515 9.86918 5.3475C9.89666 5.29865 9.91769 5.25971 9.93219 5.23232C9.93943 5.21862 9.94505 5.2078 9.94903 5.20007L9.95375 5.19082L9.95519 5.18797L9.95568 5.187C9.95575 5.18685 9.95601 5.18634 9.58333 5ZM9.58333 5L9.95601 5.18634C10.0147 5.06904 10.0145 4.93067 9.95586 4.81337L9.58333 5Z" fill="#828282"/>
    <path fill-rule="evenodd" clip-rule="evenodd" d="M5.00065 4.16665C4.54041 4.16665 4.16732 4.53974 4.16732 4.99998C4.16732 5.46022 4.54041 5.83331 5.00065 5.83331C5.46089 5.83331 5.83398 5.46022 5.83398 4.99998C5.83398 4.53974 5.46089 4.16665 5.00065 4.16665ZM3.33398 4.99998C3.33398 4.0795 4.08018 3.33331 5.00065 3.33331C5.92113 3.33331 6.66732 4.0795 6.66732 4.99998C6.66732 5.92045 5.92113 6.66665 5.00065 6.66665C4.08018 6.66665 3.33398 5.92045 3.33398 4.99998Z" fill="#828282"/>
</svg>
