<svg width="72" height="361" viewBox="0 0 72 361" fill="none" xmlns="http://www.w3.org/2000/svg">
    <circle cx="36" cy="325" r="36" fill="#356C07"/>
    <path d="M27.6 336.288C24.9333 336.288 22.896 335.307 21.488 333.344C20.08 331.36 19.376 328.48 19.376 324.704C19.376 320.949 20.08 318.091 21.488 316.128C22.896 314.144 24.9333 313.152 27.6 313.152C30.2667 313.152 32.304 314.144 33.712 316.128C35.12 318.091 35.824 320.949 35.824 324.704C35.824 328.459 35.12 331.328 33.712 333.312C32.304 335.296 30.2667 336.288 27.6 336.288ZM27.6 333.056C29.0507 333.056 30.1067 332.395 30.768 331.072C31.4293 329.728 31.76 327.605 31.76 324.704C31.76 321.781 31.4293 319.669 30.768 318.368C30.1067 317.045 29.0507 316.384 27.6 316.384C26.1493 316.384 25.0933 317.045 24.432 318.368C23.7707 319.691 23.44 321.803 23.44 324.704C23.44 327.605 23.7707 329.728 24.432 331.072C25.0933 332.395 26.1493 333.056 27.6 333.056ZM50.2435 324.416C51.5875 324.757 52.6115 325.408 53.3155 326.368C54.0408 327.307 54.4035 328.48 54.4035 329.888C54.4035 331.829 53.6888 333.376 52.2595 334.528C50.8302 335.68 48.8995 336.256 46.4675 336.256C45.0808 336.256 43.7475 336.043 42.4675 335.616C41.1875 335.189 40.0995 334.592 39.2035 333.824C38.7128 333.397 38.4675 332.896 38.4675 332.32C38.4675 331.851 38.5955 331.456 38.8515 331.136C39.1288 330.795 39.4488 330.624 39.8115 330.624C40.0248 330.624 40.2168 330.667 40.3875 330.752C40.5582 330.816 40.7928 330.933 41.0915 331.104C41.9875 331.701 42.8408 332.16 43.6515 332.48C44.4622 332.8 45.3475 332.96 46.3075 332.96C47.7155 332.96 48.7608 332.683 49.4435 332.128C50.1262 331.552 50.4675 330.688 50.4675 329.536C50.4675 328.405 50.1048 327.573 49.3795 327.04C48.6755 326.485 47.5768 326.208 46.0835 326.208H44.2595C43.7688 326.208 43.3848 326.048 43.1075 325.728C42.8515 325.387 42.7235 325.003 42.7235 324.576C42.7235 324.128 42.8515 323.744 43.1075 323.424C43.3848 323.104 43.7688 322.944 44.2595 322.944H45.5395C48.4622 322.944 49.9235 321.845 49.9235 319.648C49.9235 318.624 49.6142 317.835 48.9955 317.28C48.3768 316.725 47.5235 316.448 46.4355 316.448C44.8782 316.448 43.2142 317.067 41.4435 318.304C41.1448 318.475 40.9102 318.603 40.7395 318.688C40.5688 318.752 40.3768 318.784 40.1635 318.784C39.8008 318.784 39.4808 318.624 39.2035 318.304C38.9475 317.963 38.8195 317.557 38.8195 317.088C38.8195 316.768 38.8728 316.501 38.9795 316.288C39.1075 316.053 39.2995 315.819 39.5555 315.584C40.4515 314.837 41.5182 314.251 42.7555 313.824C44.0142 313.376 45.2942 313.152 46.5955 313.152C48.8142 313.152 50.5742 313.696 51.8755 314.784C53.1982 315.872 53.8595 317.323 53.8595 319.136C53.8382 320.373 53.5075 321.461 52.8675 322.4C52.2488 323.317 51.3742 323.989 50.2435 324.416Z" fill="white"/>
    <mask id="mask0_2_8" style="mask-type:alpha" maskUnits="userSpaceOnUse" x="0" y="289" width="72" height="72">
        <circle cx="36" cy="325" r="36" fill="#661CE7"/>
    </mask>
    <g mask="url(#mask0_2_8)">
        <circle cx="36" cy="361" r="21" fill="white" fill-opacity="0.24"/>
    </g>
    <line x1="37" y1="230" x2="37" y2="278" stroke="#68C114" stroke-width="2" stroke-linecap="round" stroke-dasharray="4 4"/>
    <circle cx="36" cy="180" r="36" fill="#356C07"/>
    <path d="M27.6 191.288C24.9333 191.288 22.896 190.307 21.488 188.344C20.08 186.36 19.376 183.48 19.376 179.704C19.376 175.949 20.08 173.091 21.488 171.128C22.896 169.144 24.9333 168.152 27.6 168.152C30.2667 168.152 32.304 169.144 33.712 171.128C35.12 173.091 35.824 175.949 35.824 179.704C35.824 183.459 35.12 186.328 33.712 188.312C32.304 190.296 30.2667 191.288 27.6 191.288ZM27.6 188.056C29.0507 188.056 30.1067 187.395 30.768 186.072C31.4293 184.728 31.76 182.605 31.76 179.704C31.76 176.781 31.4293 174.669 30.768 173.368C30.1067 172.045 29.0507 171.384 27.6 171.384C26.1493 171.384 25.0933 172.045 24.432 173.368C23.7707 174.691 23.44 176.803 23.44 179.704C23.44 182.605 23.7707 184.728 24.432 186.072C25.0933 187.395 26.1493 188.056 27.6 188.056ZM53.1235 187.672C54.4035 187.672 55.0435 188.216 55.0435 189.304C55.0435 190.435 54.4035 191 53.1235 191H40.9635C40.4088 191 39.9715 190.84 39.6515 190.52C39.3315 190.179 39.1715 189.763 39.1715 189.272C39.1715 188.632 39.4168 188.056 39.9075 187.544L47.2035 179.704C48.0995 178.723 48.7502 177.827 49.1555 177.016C49.5822 176.184 49.7955 175.363 49.7955 174.552C49.7955 173.549 49.5075 172.781 48.9315 172.248C48.3555 171.715 47.5342 171.448 46.4675 171.448C45.5928 171.448 44.7395 171.619 43.9075 171.96C43.0968 172.28 42.2755 172.728 41.4435 173.304C41.2302 173.453 41.0168 173.581 40.8035 173.688C40.5902 173.773 40.3768 173.816 40.1635 173.816C39.8008 173.816 39.4808 173.645 39.2035 173.304C38.9475 172.963 38.8195 172.557 38.8195 172.088C38.8195 171.768 38.8728 171.491 38.9795 171.256C39.1075 171.021 39.2995 170.797 39.5555 170.584C40.4942 169.837 41.5928 169.251 42.8515 168.824C44.1102 168.376 45.3688 168.152 46.6275 168.152C48.8248 168.152 50.5742 168.707 51.8755 169.816C53.1982 170.925 53.8595 172.419 53.8595 174.296C53.8595 175.597 53.5822 176.824 53.0275 177.976C52.4728 179.107 51.5342 180.376 50.2115 181.784L44.6755 187.672H53.1235Z" fill="white"/>
    <mask id="mask1_2_8" style="mask-type:alpha" maskUnits="userSpaceOnUse" x="0" y="144" width="72" height="72">
        <circle cx="36" cy="180" r="36" fill="#661CE7"/>
    </mask>
    <g mask="url(#mask1_2_8)">
        <circle cx="36" cy="216" r="21" fill="white" fill-opacity="0.24"/>
    </g>
    <line x1="37" y1="82" x2="37" y2="130" stroke="#68C114" stroke-width="2" stroke-linecap="round" stroke-dasharray="4 4"/>
    <circle cx="36" cy="36" r="36" fill="#356C07"/>
    <path d="M27.6 47.288C24.9333 47.288 22.896 46.3067 21.488 44.344C20.08 42.36 19.376 39.48 19.376 35.704C19.376 31.9493 20.08 29.0907 21.488 27.128C22.896 25.144 24.9333 24.152 27.6 24.152C30.2667 24.152 32.304 25.144 33.712 27.128C35.12 29.0907 35.824 31.9493 35.824 35.704C35.824 39.4587 35.12 42.328 33.712 44.312C32.304 46.296 30.2667 47.288 27.6 47.288ZM27.6 44.056C29.0507 44.056 30.1067 43.3947 30.768 42.072C31.4293 40.728 31.76 38.6053 31.76 35.704C31.76 32.7813 31.4293 30.6693 30.768 29.368C30.1067 28.0453 29.0507 27.384 27.6 27.384C26.1493 27.384 25.0933 28.0453 24.432 29.368C23.7707 30.6907 23.44 32.8027 23.44 35.704C23.44 38.6053 23.7707 40.728 24.432 42.072C25.0933 43.3947 26.1493 44.056 27.6 44.056ZM53.2195 43.672C54.4995 43.672 55.1395 44.216 55.1395 45.304C55.1395 46.4347 54.4995 47 53.2195 47H42.4035C41.1022 47 40.4515 46.4347 40.4515 45.304C40.4515 44.216 41.1022 43.672 42.4035 43.672H45.7315V29.08L42.6595 30.968C42.3608 31.1387 42.0942 31.224 41.8595 31.224C41.4115 31.224 41.0275 31.032 40.7075 30.648C40.4088 30.264 40.2595 29.8373 40.2595 29.368C40.2595 28.7493 40.5368 28.2693 41.0915 27.928L46.0515 24.856C46.6915 24.472 47.2995 24.28 47.8755 24.28C48.4728 24.28 48.9528 24.4613 49.3155 24.824C49.6782 25.1867 49.8595 25.688 49.8595 26.328V43.672H53.2195Z" fill="white"/>
    <mask id="mask2_2_8" style="mask-type:alpha" maskUnits="userSpaceOnUse" x="0" y="0" width="72" height="72">
        <circle cx="36" cy="36" r="36" fill="#661CE7"/>
    </mask>
    <g mask="url(#mask2_2_8)">
        <circle cx="36" cy="72" r="21" fill="white" fill-opacity="0.24"/>
    </g>
</svg>
