<svg width="48" height="48" viewBox="0 0 48 48" fill="none" xmlns="http://www.w3.org/2000/svg">
    <path d="M29.5533 28.0753L34.8534 20.2364C35.378 19.4643 34.3831 18.625 33.6234 19.1789L27.9072 23.2075C27.7194 23.3383 27.4909 23.4089 27.256 23.4089C27.0212 23.4089 26.7927 23.3383 26.6048 23.2075L22.372 20.2532C21.1057 19.3804 19.2968 19.6993 18.4467 20.9247L13.1466 28.7636C12.622 29.5357 13.6169 30.375 14.3766 29.8211L20.0928 25.7925C20.2806 25.6617 20.5091 25.5911 20.744 25.5911C20.9788 25.5911 21.2073 25.6617 21.3952 25.7925L25.628 28.6964C26.8942 29.6196 28.7032 29.3007 29.5533 28.0753Z" fill="#356C07"/>
    <path fill-rule="evenodd" clip-rule="evenodd" d="M24 4.5C13.2304 4.5 4.5 13.2304 4.5 24C4.5 29.5303 6.80388 34.5242 10.5 38.0713V43C10.5 43.4822 10.7318 43.9349 11.1229 44.2169C11.5141 44.4988 12.0169 44.5755 12.4743 44.423L18.0337 42.5699C19.9158 43.1742 21.9212 43.5 24 43.5C34.7696 43.5 43.5 34.7696 43.5 24C43.5 13.2304 34.7696 4.5 24 4.5ZM7.5 24C7.5 14.8873 14.8873 7.5 24 7.5C33.1127 7.5 40.5 14.8873 40.5 24C40.5 33.1127 33.1127 40.5 24 40.5C22.0809 40.5 20.2415 40.173 18.5322 39.5729C18.2183 39.4627 17.8766 39.46 17.561 39.5652L13.5 40.9189V37.4166C13.5 36.99 13.3183 36.5835 13.0004 36.2989C9.62235 33.2755 7.5 28.8866 7.5 24Z" fill="#356C07"/>
</svg>
