<svg width="145" height="36" viewBox="0 0 145 36" fill="none" xmlns="http://www.w3.org/2000/svg">
    <rect x="0.421886" y="0.421886" width="39.489" height="34.1994" stroke="#EBEBEB" stroke-width="0.843773"/>
    <g clip-path="url(#clip0_3441_9738)">
        <path d="M26.924 18.465H13.6895V16.8223H26.924V18.465Z" fill="black" fill-opacity="0.54"/>
    </g>
    <rect x="39.6338" y="0.421886" width="65.0737" height="34.1994" stroke="#EBEBEB" stroke-width="0.843773"/>
    <path d="M76.5459 22.4392C76.7619 22.4392 76.9299 22.4932 77.0499 22.6012C77.1699 22.7092 77.2299 22.8592 77.2299 23.0512C77.2299 23.2552 77.1699 23.4112 77.0499 23.5192C76.9419 23.6272 76.7739 23.6812 76.5459 23.6812H70.5879C70.3599 23.6812 70.1859 23.6272 70.0659 23.5192C69.9579 23.4112 69.9039 23.2552 69.9039 23.0512C69.9039 22.8592 69.9639 22.7092 70.0839 22.6012C70.2039 22.4932 70.3719 22.4392 70.5879 22.4392H72.8199V12.7912L70.8579 14.0692C70.7619 14.1292 70.6659 14.1592 70.5699 14.1592C70.4019 14.1592 70.2519 14.0812 70.1199 13.9252C69.9999 13.7692 69.9399 13.6012 69.9399 13.4212C69.9399 13.1692 70.0359 12.9892 70.2279 12.8812L72.9639 11.0992C73.1679 10.9672 73.3779 10.9012 73.5939 10.9012C73.7979 10.9012 73.9659 10.9672 74.0979 11.0992C74.2299 11.2312 74.2959 11.4172 74.2959 11.6572V22.4392H76.5459Z" fill="#4F4F4F"/>
    <rect x="104.578" y="0.421886" width="39.489" height="34.1994" stroke="#EBEBEB" stroke-width="0.843773"/>
    <path d="M131.08 18.4648H125.408V23.3929H123.518V18.4648H117.846V16.8221H123.518V11.894H125.408V16.8221H131.08V18.4648Z" fill="black" fill-opacity="0.54"/>
    <defs>
        <clipPath id="clip0_3441_9738">
            <rect width="22.6878" height="19.7123" fill="white" transform="translate(8.96289 7.7876)"/>
        </clipPath>
    </defs>
</svg>
