<svg width="37" height="36" viewBox="0 0 37 36" fill="none" xmlns="http://www.w3.org/2000/svg">
    <circle opacity="0.1" cx="18.5" cy="18" r="18" fill="#356C07"/>
    <path d="M14.4517 11.9915C13.293 13.1485 12.6191 14.7038 12.5673 16.3404C12.5155 17.9769 13.0897 19.5717 14.1728 20.7997C15.256 22.0276 16.7666 22.7963 18.3969 22.9492C19.9975 23.0992 21.595 22.6446 22.8759 21.6767L26.2071 25.0087L26.2071 25.0087C26.2899 25.0915 26.3883 25.1572 26.4965 25.2021C26.6048 25.2469 26.7208 25.27 26.8379 25.27C26.9551 25.27 27.0711 25.2469 27.1793 25.2021C27.2875 25.1572 27.3859 25.0915 27.4687 25.0087C27.5516 24.9258 27.6173 24.8275 27.6621 24.7192C27.7069 24.611 27.73 24.495 27.73 24.3779C27.73 24.2607 27.7069 24.1447 27.6621 24.0365C27.6173 23.9282 27.5516 23.8299 27.4687 23.747L27.4687 23.747L24.137 20.4161C25.1023 19.1351 25.5549 17.5386 25.404 15.9396C25.2503 14.3107 24.4818 12.8015 23.2548 11.7191C22.0279 10.6367 20.4347 10.0624 18.7994 10.113C17.164 10.1636 15.6094 10.8354 14.4517 11.9915ZM14.4517 11.9915L14.5224 12.0623L14.4517 11.9915ZM22.2897 13.2538C22.7273 13.6843 23.0753 14.1972 23.3136 14.7628C23.552 15.3285 23.676 15.9357 23.6785 16.5496C23.681 17.1634 23.562 17.7716 23.3282 18.3392C23.0945 18.9068 22.7507 19.4225 22.3166 19.8565C21.8826 20.2906 21.3669 20.6344 20.7993 20.8682C20.2317 21.1019 19.6235 21.221 19.0096 21.2185C18.3958 21.216 17.7885 21.092 17.2229 20.8536C16.6572 20.6152 16.1443 20.2672 15.7138 19.8297C14.8535 18.9552 14.3736 17.7762 14.3786 16.5496C14.3836 15.3229 14.8731 14.1479 15.7405 13.2805C16.6079 12.413 17.7829 11.9235 19.0096 11.9185C20.2363 11.9135 21.4153 12.3935 22.2897 13.2538Z" fill="#356C07" stroke="#356C07" stroke-width="0.2"/>
</svg>
