<svg width="70" height="70" viewBox="0 0 70 70" fill="none" xmlns="http://www.w3.org/2000/svg">
    <circle cx="35" cy="35" r="35" fill="#68C114"/>
    <g clip-path="url(#clip0_3441_8867)">
        <path d="M23.0689 44.0257C22.0634 44.0257 21.1006 44.0303 20.1377 44.0241C19.0058 44.0164 18.5807 43.5844 18.5685 42.4396C18.5655 42.1141 18.5685 41.787 18.5685 41.3859C17.9043 41.3859 17.3162 41.4461 16.751 41.3597C16.4722 41.318 16.0639 41.0434 16.0151 40.8089C15.9176 40.3445 16.3061 40.1501 16.7419 40.1501C18.596 40.147 20.4516 40.1254 22.3041 40.1763C22.5525 40.1825 22.9532 40.5296 22.9989 40.7734C23.0887 41.264 22.6804 41.3905 22.2493 41.3874C21.4662 41.3813 20.6831 41.3859 19.8483 41.3859C19.8483 41.8472 19.8483 42.2468 19.8483 42.7775C20.9254 42.7775 22.0299 42.7914 23.1344 42.7606C23.2716 42.7559 23.4437 42.5338 23.5275 42.3733C24.2725 40.9493 25.4425 40.1655 27.0194 40.1686C28.5962 40.1717 29.7632 40.957 30.5051 42.3856C30.5935 42.5554 30.8174 42.7667 30.9789 42.7683C35.065 42.7899 39.1525 42.7852 43.3543 42.7852C43.3543 41.5834 43.2797 38.5934 43.3787 38.2925C43.6971 37.464 44.4588 37.7726 44.5487 38.2617C44.6264 39.1287 44.5822 42.1187 44.5822 42.7374C44.6569 42.7498 44.7315 42.7606 44.8062 42.7729C44.9387 42.543 45.0682 42.31 45.2038 42.0817C46.6435 39.6471 50.1262 39.4635 51.6406 41.8457C52.2013 42.7282 52.7649 42.9534 53.7187 42.7143C53.7187 41.8981 53.7187 41.0418 53.7187 40.1439C53.4231 40.1161 53.1245 40.1084 52.8305 40.0591C51.8661 39.8971 51.2018 39.192 51.1881 38.2262C51.1592 36.1002 50.9718 36.185 53.0437 36.2035C53.2144 36.2051 53.385 36.1804 53.6196 36.1634C53.3393 35.3442 52.8 34.8705 52.0519 34.8566C49.5945 34.8088 47.1356 34.8381 44.6447 34.8381C44.6081 35.1236 44.6401 35.4105 44.5243 35.6126C44.3065 35.9227 43.8494 36.077 43.397 35.5771C43.3025 35.392 43.3558 35.1251 43.3558 34.8937C43.3543 31.6537 43.3543 28.4122 43.3543 25.1723C43.3543 24.8946 43.3543 24.6153 43.3543 24.2913C35.4915 24.2913 27.7049 24.2913 19.7965 24.2913C19.7965 24.549 19.7965 24.819 19.7965 25.089C19.7965 28.3814 19.7965 31.6738 19.7949 34.9646C19.7949 35.1961 19.8467 35.463 19.7508 35.6466C19.6502 35.8425 19.4065 36.0739 19.216 36.0816C19.0241 36.0909 18.7453 35.8857 18.6447 35.6975C18.535 35.4923 18.5731 35.1991 18.5731 34.943C18.5701 31.5488 18.5701 28.153 18.5716 24.7588C18.5701 23.4104 18.9707 23.0015 20.2886 23C27.7567 23 35.2249 23 42.6931 23C44.2318 23 44.5655 23.3363 44.5807 24.8992C44.5822 25.1029 44.5807 25.3081 44.5807 25.5827C44.8351 25.6012 45.053 25.629 45.2709 25.629C46.5415 25.6336 47.8121 25.6136 49.0811 25.6367C50.8194 25.6676 52.25 27.2073 51.6772 28.8273C51.0845 30.5012 52.0641 31.7694 52.1982 33.2305C52.2134 33.3987 52.4968 33.6023 52.6979 33.681C54.2275 34.2704 54.9923 35.3596 54.9969 37.0367C55.003 39.0177 55.0014 40.9971 54.9969 42.9781C54.9953 43.9223 54.8933 44.018 53.9274 44.0241C53.4475 44.0272 52.9691 44.0241 52.5059 44.0241C51.7686 46.8151 50.5163 48.0293 48.4519 47.9969C46.4348 47.9661 45.1764 46.7025 44.5548 44.0581C40.0483 44.0581 35.5327 44.0581 30.9439 44.0581C30.7855 45.4266 30.3208 46.6979 29.0563 47.3566C28.3448 47.7269 27.4688 47.9722 26.6766 47.9491C24.7478 47.8935 23.4864 46.4556 23.0689 44.0257ZM44.6295 29.5154C44.6295 30.9193 44.6295 32.1922 44.6295 33.5067C46.741 33.5067 48.8054 33.5067 50.9687 33.5067C50.6595 32.2338 50.3731 31.0212 50.0577 29.8162C50.0257 29.6912 49.817 29.5293 49.6875 29.5277C48.0208 29.5092 46.3525 29.5154 44.6295 29.5154ZM29.6626 44.109C29.6824 42.6541 28.4636 41.4013 27.0194 41.3952C25.6025 41.3874 24.4005 42.5739 24.3639 44.0133C24.3258 45.4821 25.5111 46.7333 26.963 46.7596C28.4149 46.7858 29.6428 45.5808 29.6626 44.109ZM48.5159 46.7611C49.9678 46.7627 51.1805 45.5315 51.1714 44.0642C51.1622 42.6279 49.9846 41.4245 48.5616 41.3952C47.1234 41.3658 45.8833 42.5924 45.8681 44.0565C45.8528 45.5207 47.0655 46.758 48.5159 46.7611ZM50.498 28.2348C50.4157 27.431 50.015 26.9435 49.3523 26.9142C47.7953 26.8478 46.2337 26.8926 44.6325 26.8926C44.6325 27.3708 44.6325 27.7859 44.6325 28.2348C46.5978 28.2348 48.5098 28.2348 50.498 28.2348ZM53.7385 37.498C53.2906 37.498 52.8777 37.498 52.4709 37.498C52.3186 38.6875 52.6415 38.9945 53.7385 38.7353C53.7385 38.3403 53.7385 37.9408 53.7385 37.498Z" fill="white"/>
        <path d="M36.7574 41.3873C35.3375 41.3873 33.9176 41.3842 32.4977 41.3889C32.0574 41.3904 31.6385 41.3395 31.6507 40.7687C31.6613 40.2117 32.0803 40.1484 32.5175 40.1484C35.3573 40.15 38.1971 40.15 41.0384 40.1484C41.4726 40.1484 41.9023 40.1994 41.9221 40.7517C41.9449 41.3781 41.4742 41.3904 41.0171 41.3889C39.5972 41.3842 38.1773 41.3873 36.7574 41.3873Z" fill="white"/>
        <path d="M21.729 38.7522C20.5376 38.7522 19.3447 38.7475 18.1534 38.7537C17.7085 38.7568 17.2972 38.6874 17.3109 38.1242C17.3246 37.5688 17.7436 37.5117 18.1823 37.5133C20.591 37.5164 23.0011 37.5179 25.4098 37.5117C25.8531 37.5102 26.2843 37.5843 26.2965 38.115C26.3102 38.709 25.8486 38.7583 25.3808 38.7553C24.1636 38.746 22.9463 38.7522 21.729 38.7522Z" fill="white"/>
        <path d="M26.9916 42.7961C27.6635 42.7837 28.2683 43.3793 28.279 44.0628C28.2896 44.7416 27.7 45.3541 27.0266 45.3649C26.3578 45.3757 25.753 44.7802 25.7423 44.0982C25.7317 43.4178 26.3167 42.8084 26.9916 42.7961Z" fill="white"/>
        <path d="M49.7897 44.0812C49.7897 44.7585 49.1879 45.3648 48.5191 45.3648C47.8503 45.3648 47.25 44.7569 47.25 44.0796C47.25 43.3992 47.8503 42.7944 48.5206 42.7944C49.1925 42.7944 49.7897 43.4008 49.7897 44.0812Z" fill="white"/>
    </g>
    <defs>
        <clipPath id="clip0_3441_8867">
            <rect width="39" height="25" fill="white" transform="translate(16 23)"/>
        </clipPath>
    </defs>
</svg>
