<svg width="46" height="17" viewBox="0 0 46 17" fill="none" xmlns="http://www.w3.org/2000/svg">
<g clip-path="url(#clip0_3441_10112)">
<path fill-rule="evenodd" clip-rule="evenodd" d="M1.03843 8.40958C1.07982 8.48112 1.13471 8.57229 1.2027 8.67756C1.37732 8.94796 1.63593 9.30753 1.97168 9.66566C2.65008 10.3893 3.59856 11.0611 4.77299 11.0611C5.94742 11.0611 6.8959 10.3893 7.5743 9.66566C7.91005 9.30753 8.16866 8.94796 8.34329 8.67756C8.41128 8.57229 8.46616 8.48112 8.50756 8.40958C8.46616 8.33804 8.41128 8.24687 8.34329 8.1416C8.16866 7.8712 7.91005 7.51163 7.5743 7.1535C6.8959 6.42987 5.94742 5.75806 4.77299 5.75806C3.59856 5.75806 2.65008 6.42987 1.97168 7.1535C1.63593 7.51163 1.37732 7.8712 1.2027 8.1416C1.13471 8.24687 1.07982 8.33804 1.03843 8.40958ZM8.93966 8.40958C9.27846 8.24018 9.27839 8.24005 9.27832 8.23991L9.27771 8.2387L9.2764 8.23611L9.27211 8.22769C9.26849 8.22067 9.26339 8.21083 9.2568 8.19838C9.24362 8.17348 9.2245 8.13808 9.19952 8.09367C9.14959 8.0049 9.07608 7.87985 8.97968 7.73059C8.78736 7.4328 8.50146 7.0348 8.12698 6.63536C7.38493 5.84384 6.25008 5.00049 4.77299 5.00049C3.29591 5.00049 2.16105 5.84384 1.419 6.63536C1.04452 7.0348 0.758624 7.4328 0.566303 7.73059C0.469906 7.87985 0.3964 8.0049 0.346468 8.09367C0.321487 8.13808 0.302365 8.17348 0.289188 8.19838C0.282598 8.21083 0.277492 8.22067 0.273879 8.22769L0.269581 8.23611L0.268274 8.2387L0.267831 8.23958C0.267761 8.23972 0.267529 8.24018 0.606327 8.40958L0.267529 8.24018C0.214209 8.34682 0.214209 8.47234 0.267529 8.57898L0.606327 8.40958C0.267529 8.57898 0.267459 8.57884 0.267529 8.57898L0.268274 8.58046L0.269581 8.58305L0.273879 8.59146C0.277492 8.59849 0.282598 8.60832 0.289188 8.62078C0.302365 8.64568 0.321487 8.68108 0.346468 8.72549C0.3964 8.81426 0.469906 8.93931 0.566303 9.08857C0.758624 9.38635 1.04452 9.78435 1.419 10.1838C2.16105 10.9753 3.29591 11.8187 4.77299 11.8187C6.25008 11.8187 7.38493 10.9753 8.12698 10.1838C8.50146 9.78435 8.78736 9.38635 8.97968 9.08857C9.07608 8.93931 9.14959 8.81426 9.19952 8.72549C9.2245 8.68108 9.24362 8.64568 9.2568 8.62078C9.26339 8.60832 9.26849 8.59849 9.27211 8.59146L9.2764 8.58305L9.27771 8.58046L9.27815 8.57958C9.27822 8.57944 9.27846 8.57898 8.93966 8.40958ZM8.93966 8.40958L9.27846 8.57898C9.33178 8.47234 9.33164 8.34655 9.27832 8.23991L8.93966 8.40958Z" fill="#828282"/>
<path fill-rule="evenodd" clip-rule="evenodd" d="M4.77248 7.65211C4.35408 7.65211 4.0149 7.99129 4.0149 8.40968C4.0149 8.82808 4.35408 9.16726 4.77248 9.16726C5.19087 9.16726 5.53005 8.82808 5.53005 8.40968C5.53005 7.99129 5.19087 7.65211 4.77248 7.65211ZM3.25732 8.40968C3.25732 7.57289 3.93568 6.89453 4.77248 6.89453C5.60927 6.89453 6.28763 7.57289 6.28763 8.40968C6.28763 9.24648 5.60927 9.92483 4.77248 9.92483C3.93568 9.92483 3.25732 9.24648 3.25732 8.40968Z" fill="#828282"/>
</g>
<path d="M20.4481 11.5817C20.5921 11.5817 20.7041 11.6177 20.7841 11.6897C20.8641 11.7617 20.9041 11.8617 20.9041 11.9897C20.9041 12.2697 20.7521 12.4097 20.4481 12.4097H15.7441C15.6081 12.4097 15.4961 12.3697 15.4081 12.2897C15.3201 12.2017 15.2761 12.0977 15.2761 11.9777C15.2761 11.8257 15.3321 11.6937 15.4441 11.5817L18.3361 8.40167C18.7361 7.95367 19.0241 7.55367 19.2001 7.20167C19.3841 6.84167 19.4761 6.48167 19.4761 6.12167C19.4761 5.65767 19.3401 5.30167 19.0681 5.05367C18.8041 4.80567 18.4281 4.68167 17.9401 4.68167C17.5561 4.68167 17.1881 4.75367 16.8361 4.89767C16.4841 5.03367 16.1321 5.24567 15.7801 5.53367C15.6601 5.62967 15.5481 5.67767 15.4441 5.67767C15.3561 5.67767 15.2801 5.63767 15.2161 5.55767C15.1521 5.46967 15.1201 5.36567 15.1201 5.24567C15.1201 5.07767 15.1841 4.94167 15.3121 4.83767C15.6401 4.53367 16.0401 4.29367 16.5121 4.11767C16.9841 3.94167 17.4681 3.85367 17.9641 3.85367C18.7241 3.85367 19.3281 4.05367 19.7761 4.45367C20.2321 4.85367 20.4601 5.39367 20.4601 6.07367C20.4601 6.56167 20.3481 7.02967 20.1241 7.47767C19.9081 7.92567 19.5481 8.42567 19.0441 8.97767L16.6441 11.5817H20.4481ZM22.9274 12.4697C22.7354 12.4697 22.5754 12.4097 22.4474 12.2897C22.3194 12.1617 22.2554 11.9977 22.2554 11.7977C22.2554 11.5977 22.3194 11.4337 22.4474 11.3057C22.5754 11.1777 22.7354 11.1137 22.9274 11.1137C23.1114 11.1137 23.2634 11.1777 23.3834 11.3057C23.5114 11.4337 23.5754 11.5977 23.5754 11.7977C23.5754 11.9977 23.5114 12.1617 23.3834 12.2897C23.2634 12.4097 23.1114 12.4697 22.9274 12.4697ZM28.2376 7.09367C28.7496 7.09367 29.2056 7.20567 29.6056 7.42967C30.0056 7.65367 30.3176 7.96967 30.5416 8.37767C30.7656 8.78567 30.8776 9.25367 30.8776 9.78167C30.8776 10.3017 30.7616 10.7697 30.5296 11.1857C30.2976 11.6017 29.9736 11.9257 29.5576 12.1577C29.1416 12.3897 28.6736 12.5057 28.1536 12.5057C27.1296 12.5057 26.3376 12.1497 25.7776 11.4377C25.2256 10.7257 24.9496 9.70967 24.9496 8.38967C24.9496 7.44567 25.0776 6.63367 25.3336 5.95367C25.5896 5.27367 25.9616 4.75367 26.4496 4.39367C26.9376 4.03367 27.5176 3.85367 28.1896 3.85367C28.6456 3.85367 29.0976 3.94167 29.5456 4.11767C30.0016 4.29367 30.3896 4.53367 30.7096 4.83767C30.8456 4.96567 30.9136 5.10167 30.9136 5.24567C30.9136 5.36567 30.8816 5.46567 30.8176 5.54567C30.7536 5.62567 30.6776 5.66567 30.5896 5.66567C30.4776 5.66567 30.3616 5.62167 30.2416 5.53367C29.5456 4.96567 28.8696 4.68167 28.2136 4.68167C27.5016 4.68167 26.9456 5.00567 26.5456 5.65367C26.1456 6.30167 25.9456 7.20967 25.9456 8.37767V8.53367C26.1296 8.08567 26.4256 7.73367 26.8336 7.47767C27.2496 7.22167 27.7176 7.09367 28.2376 7.09367ZM28.1056 11.6777C28.6496 11.6777 29.0856 11.5057 29.4136 11.1617C29.7416 10.8177 29.9056 10.3617 29.9056 9.79367C29.9056 9.22567 29.7376 8.77367 29.4016 8.43767C29.0736 8.09367 28.6376 7.92167 28.0936 7.92167C27.5416 7.92167 27.0896 8.09767 26.7376 8.44967C26.3936 8.79367 26.2216 9.24167 26.2216 9.79367C26.2216 10.3537 26.3936 10.8097 26.7376 11.1617C27.0896 11.5057 27.5456 11.6777 28.1056 11.6777ZM37.8691 9.75767C38.0131 9.75767 38.1251 9.79767 38.2051 9.87767C38.2851 9.94967 38.3251 10.0457 38.3251 10.1657C38.3251 10.4377 38.1731 10.5737 37.8691 10.5737H36.9691V11.9657C36.9691 12.1257 36.9211 12.2497 36.8251 12.3377C36.7371 12.4257 36.6211 12.4697 36.4771 12.4697C36.3331 12.4697 36.2171 12.4257 36.1291 12.3377C36.0411 12.2497 35.9971 12.1257 35.9971 11.9657V10.5737H32.4451C32.3011 10.5737 32.1891 10.5337 32.1091 10.4537C32.0291 10.3737 31.9891 10.2737 31.9891 10.1537C31.9891 10.0417 32.0331 9.91767 32.1211 9.78167L36.0451 4.10567C36.1571 3.96167 36.3011 3.88967 36.4771 3.88967C36.6131 3.88967 36.7291 3.93367 36.8251 4.02167C36.9211 4.10967 36.9691 4.23367 36.9691 4.39367V9.75767H37.8691ZM33.1051 9.75767H35.9971V5.59367L33.1051 9.75767ZM43.7325 8.06567C44.2285 8.21767 44.6125 8.47767 44.8845 8.84567C45.1645 9.21367 45.3045 9.65367 45.3045 10.1657C45.3045 10.8937 45.0405 11.4657 44.5125 11.8817C43.9845 12.2897 43.2365 12.4937 42.2685 12.4937C41.3005 12.4937 40.5525 12.2897 40.0245 11.8817C39.4965 11.4657 39.2325 10.8937 39.2325 10.1657C39.2325 9.64567 39.3725 9.20167 39.6525 8.83367C39.9325 8.46567 40.3205 8.20967 40.8165 8.06567C40.3925 7.90567 40.0565 7.65367 39.8085 7.30967C39.5605 6.96567 39.4365 6.56167 39.4365 6.09767C39.4365 5.40967 39.6845 4.86567 40.1805 4.46567C40.6845 4.05767 41.3805 3.85367 42.2685 3.85367C43.1565 3.85367 43.8485 4.05767 44.3445 4.46567C44.8485 4.86567 45.1005 5.40967 45.1005 6.09767C45.1005 6.56167 44.9765 6.96967 44.7285 7.32167C44.4805 7.66567 44.1485 7.91367 43.7325 8.06567ZM40.4085 6.16967C40.4085 6.66567 40.5645 7.04567 40.8765 7.30967C41.1965 7.57367 41.6605 7.70567 42.2685 7.70567C42.8765 7.70567 43.3365 7.57367 43.6485 7.30967C43.9685 7.04567 44.1285 6.66567 44.1285 6.16967C44.1285 5.69767 43.9685 5.32967 43.6485 5.06567C43.3365 4.80167 42.8765 4.66967 42.2685 4.66967C41.6605 4.66967 41.1965 4.80167 40.8765 5.06567C40.5645 5.32967 40.4085 5.69767 40.4085 6.16967ZM42.2685 11.6777C43.6445 11.6777 44.3325 11.1537 44.3325 10.1057C44.3325 9.05767 43.6445 8.53367 42.2685 8.53367C40.8925 8.53367 40.2045 9.05767 40.2045 10.1057C40.2045 11.1537 40.8925 11.6777 42.2685 11.6777Z" fill="#4F4F4F"/>
<defs>
<clipPath id="clip0_3441_10112">
<rect width="9.09091" height="9.09091" fill="white" transform="translate(0.227539 3.86426)"/>
</clipPath>
</defs>
</svg>
