<svg width="20" height="21" viewBox="0 0 20 21" fill="none" xmlns="http://www.w3.org/2000/svg">
<path d="M9.99996 18C8.9474 17.1022 7.97178 16.118 7.08329 15.0575C5.74996 13.465 4.16663 11.0934 4.16663 8.83338C4.16544 6.473 5.58683 4.34453 7.76752 3.44121C9.9482 2.53788 12.4583 3.03774 14.1266 4.70754C15.2237 5.79972 15.8382 7.28537 15.8333 8.83338C15.8333 11.0934 14.25 13.465 12.9166 15.0575C12.0281 16.118 11.0525 17.1022 9.99996 18ZM9.99996 4.66671C7.69992 4.66946 5.83605 6.53333 5.83329 8.83338C5.83329 9.80504 6.27246 11.4875 8.36246 13.9884C8.87758 14.6034 9.42414 15.1914 9.99996 15.75C10.5758 15.1921 11.1227 14.6049 11.6383 13.9909C13.7275 11.4867 14.1666 9.80421 14.1666 8.83338C14.1639 6.53333 12.3 4.66946 9.99996 4.66671ZM9.99996 11.3334C8.61925 11.3334 7.49996 10.2141 7.49996 8.83338C7.49996 7.45266 8.61925 6.33338 9.99996 6.33338C11.3807 6.33338 12.5 7.45266 12.5 8.83338C12.5 9.49642 12.2366 10.1323 11.7677 10.6011C11.2989 11.07 10.663 11.3334 9.99996 11.3334Z" fill="white"/>
</svg>
