<svg width="72" height="72" viewBox="0 0 72 72" fill="none" xmlns="http://www.w3.org/2000/svg">
<circle cx="36" cy="36" r="36" fill="#356C07"/>
<path d="M27.6 47.288C24.9333 47.288 22.896 46.3067 21.488 44.344C20.08 42.36 19.376 39.48 19.376 35.704C19.376 31.9493 20.08 29.0907 21.488 27.128C22.896 25.144 24.9333 24.152 27.6 24.152C30.2667 24.152 32.304 25.144 33.712 27.128C35.12 29.0907 35.824 31.9493 35.824 35.704C35.824 39.4587 35.12 42.328 33.712 44.312C32.304 46.296 30.2667 47.288 27.6 47.288ZM27.6 44.056C29.0507 44.056 30.1067 43.3947 30.768 42.072C31.4293 40.728 31.76 38.6053 31.76 35.704C31.76 32.7813 31.4293 30.6693 30.768 29.368C30.1067 28.0453 29.0507 27.384 27.6 27.384C26.1493 27.384 25.0933 28.0453 24.432 29.368C23.7707 30.6907 23.44 32.8027 23.44 35.704C23.44 38.6053 23.7707 40.728 24.432 42.072C25.0933 43.3947 26.1493 44.056 27.6 44.056ZM53.2195 43.672C54.4995 43.672 55.1395 44.216 55.1395 45.304C55.1395 46.4347 54.4995 47 53.2195 47H42.4035C41.1022 47 40.4515 46.4347 40.4515 45.304C40.4515 44.216 41.1022 43.672 42.4035 43.672H45.7315V29.08L42.6595 30.968C42.3608 31.1387 42.0942 31.224 41.8595 31.224C41.4115 31.224 41.0275 31.032 40.7075 30.648C40.4088 30.264 40.2595 29.8373 40.2595 29.368C40.2595 28.7493 40.5368 28.2693 41.0915 27.928L46.0515 24.856C46.6915 24.472 47.2995 24.28 47.8755 24.28C48.4728 24.28 48.9528 24.4613 49.3155 24.824C49.6782 25.1867 49.8595 25.688 49.8595 26.328V43.672H53.2195Z" fill="white"/>
</svg>
