<svg width="49" height="49" viewBox="0 0 49 49" fill="none" xmlns="http://www.w3.org/2000/svg">
<circle opacity="0.2" cx="24.0638" cy="24.1703" r="24.0638" fill="#E10000"/>
<ellipse opacity="0.7" cx="24.0638" cy="24.7169" rx="19.6886" ry="19.1417" fill="#E10000"/>
<path d="M32.3223 28.2724L29.8845 25.8346C29.0139 24.964 27.5338 25.3123 27.1855 26.4441C26.9243 27.2277 26.0537 27.663 25.2701 27.4888C23.5288 27.0535 21.178 24.7898 20.7427 22.9615C20.4815 22.1779 21.0039 21.3072 21.7875 21.0461C22.9193 20.6978 23.2676 19.2177 22.397 18.347L19.9591 15.9092C19.2626 15.2998 18.2179 15.2998 17.6084 15.9092L15.9542 17.5635C14.2999 19.3048 16.1283 23.9192 20.2203 28.0112C24.3124 32.1033 28.9268 34.0187 30.6681 32.2774L32.3223 30.6232C32.9318 29.9266 32.9318 28.8819 32.3223 28.2724Z" fill="white"/>
</svg>
