<svg width="20" height="21" viewBox="0 0 20 21" fill="none" xmlns="http://www.w3.org/2000/svg">
<path d="M7.28512 7.73491C6.39084 8.49478 6.06313 9.88059 6.83531 10.9923C7.5579 12.0327 8.46813 12.9427 9.50825 13.665C10.62 14.437 12.0058 14.1092 12.7656 13.2149L12.774 13.2188C13.7445 13.6684 14.7753 13.9765 15.8333 14.1336V16.3333L15.8324 16.3333L15.8301 16.3333C9.18459 16.3427 4.15956 11.2593 4.16668 4.66966V4.66667H6.36614L6.36629 4.66764C6.52333 5.72554 6.83134 6.75545 7.28095 7.7259L7.28512 7.73491ZM15.8324 18H16.6667C17.1269 18 17.5 17.6269 17.5 17.1667V13.4148C17.5 13.0018 17.1975 12.6511 16.789 12.5905L16.0772 12.4848C15.1769 12.3512 14.3004 12.0891 13.4746 11.7065L12.8472 11.4159C12.4836 11.2475 12.0517 11.3617 11.8188 11.6877L11.5348 12.0854C11.2859 12.4339 10.8106 12.5403 10.4589 12.296C9.58196 11.6871 8.81339 10.9187 8.20419 10.0416C7.95984 9.68979 8.06629 9.21448 8.41486 8.96555L8.81231 8.68172C9.13841 8.44884 9.25259 8.01684 9.08414 7.65325L8.7932 7.02527C8.41062 6.1995 8.14852 5.32312 8.01488 4.42291L7.9092 3.71097C7.84856 3.30247 7.49787 3 7.0849 3H3.33334C2.8731 3 2.50001 3.3731 2.50001 3.83333V4.66786C2.49191 12.1732 8.25853 18.0107 15.8324 18Z" fill="white"/>
</svg>
