<svg width="49" height="49" viewBox="0 0 49 49" fill="none" xmlns="http://www.w3.org/2000/svg">
<path d="M29.6319 28.2565L34.9461 20.3967C35.4721 19.6225 34.4746 18.781 33.7128 19.3364L27.9815 23.3757C27.7931 23.5068 27.564 23.5776 27.3285 23.5776C27.0931 23.5776 26.8639 23.5068 26.6756 23.3757L22.4315 20.4135C21.1619 19.5384 19.3482 19.8581 18.4957 21.0867L13.1815 28.9465C12.6555 29.7207 13.6531 30.5622 14.4148 30.0068L20.1462 25.9675C20.3346 25.8364 20.5637 25.7656 20.7991 25.7656C21.0346 25.7656 21.2637 25.8364 21.4521 25.9675L25.6962 28.8792C26.9658 29.8048 28.7795 29.4851 29.6319 28.2565Z" fill="#1877F2"/>
<path fill-rule="evenodd" clip-rule="evenodd" d="M24.0638 4.61841C13.2656 4.61841 4.51196 13.3721 4.51196 24.1703C4.51196 29.7152 6.82197 34.7225 10.5279 38.279V43.2208C10.5279 43.7043 10.7603 44.1582 11.1525 44.4409C11.5447 44.7236 12.0489 44.8005 12.5075 44.6476L18.0816 42.7896C19.9688 43.3955 21.9795 43.7221 24.0638 43.7221C34.862 43.7221 43.6157 34.9685 43.6157 24.1703C43.6157 13.3721 34.862 4.61841 24.0638 4.61841ZM7.51994 24.1703C7.51994 15.0333 14.9269 7.62639 24.0638 7.62639C33.2008 7.62639 40.6077 15.0333 40.6077 24.1703C40.6077 33.3072 33.2008 40.7142 24.0638 40.7142C22.1397 40.7142 20.2953 40.3863 18.5815 39.7846C18.2668 39.6741 17.9242 39.6714 17.6077 39.7769L13.5359 41.1341V37.6226C13.5359 37.1948 13.3537 36.7872 13.0349 36.5019C9.64794 33.4705 7.51994 29.0699 7.51994 24.1703Z" fill="#1877F2"/>
</svg>
