<svg width="72" height="72" viewBox="0 0 72 72" fill="none" xmlns="http://www.w3.org/2000/svg">
<circle cx="36" cy="36" r="36" fill="#356C07"/>
<path d="M27.6 47.288C24.9333 47.288 22.896 46.3067 21.488 44.344C20.08 42.36 19.376 39.48 19.376 35.704C19.376 31.9493 20.08 29.0907 21.488 27.128C22.896 25.144 24.9333 24.152 27.6 24.152C30.2667 24.152 32.304 25.144 33.712 27.128C35.12 29.0907 35.824 31.9493 35.824 35.704C35.824 39.4587 35.12 42.328 33.712 44.312C32.304 46.296 30.2667 47.288 27.6 47.288ZM27.6 44.056C29.0507 44.056 30.1067 43.3947 30.768 42.072C31.4293 40.728 31.76 38.6053 31.76 35.704C31.76 32.7813 31.4293 30.6693 30.768 29.368C30.1067 28.0453 29.0507 27.384 27.6 27.384C26.1493 27.384 25.0933 28.0453 24.432 29.368C23.7707 30.6907 23.44 32.8027 23.44 35.704C23.44 38.6053 23.7707 40.728 24.432 42.072C25.0933 43.3947 26.1493 44.056 27.6 44.056ZM53.1235 43.672C54.4035 43.672 55.0435 44.216 55.0435 45.304C55.0435 46.4347 54.4035 47 53.1235 47H40.9635C40.4088 47 39.9715 46.84 39.6515 46.52C39.3315 46.1787 39.1715 45.7627 39.1715 45.272C39.1715 44.632 39.4168 44.056 39.9075 43.544L47.2035 35.704C48.0995 34.7227 48.7502 33.8267 49.1555 33.016C49.5822 32.184 49.7955 31.3627 49.7955 30.552C49.7955 29.5493 49.5075 28.7813 48.9315 28.248C48.3555 27.7147 47.5342 27.448 46.4675 27.448C45.5928 27.448 44.7395 27.6187 43.9075 27.96C43.0968 28.28 42.2755 28.728 41.4435 29.304C41.2302 29.4533 41.0168 29.5813 40.8035 29.688C40.5902 29.7733 40.3768 29.816 40.1635 29.816C39.8008 29.816 39.4808 29.6453 39.2035 29.304C38.9475 28.9627 38.8195 28.5573 38.8195 28.088C38.8195 27.768 38.8728 27.4907 38.9795 27.256C39.1075 27.0213 39.2995 26.7973 39.5555 26.584C40.4942 25.8373 41.5928 25.2507 42.8515 24.824C44.1102 24.376 45.3688 24.152 46.6275 24.152C48.8248 24.152 50.5742 24.7067 51.8755 25.816C53.1982 26.9253 53.8595 28.4187 53.8595 30.296C53.8595 31.5973 53.5822 32.824 53.0275 33.976C52.4728 35.1067 51.5342 36.376 50.2115 37.784L44.6755 43.672H53.1235Z" fill="white"/>
</svg>
