<svg width="72" height="72" viewBox="0 0 72 72" fill="none" xmlns="http://www.w3.org/2000/svg">
<circle cx="36" cy="36" r="36" fill="#356C07"/>
<path d="M27.6 47.288C24.9333 47.288 22.896 46.3067 21.488 44.344C20.08 42.36 19.376 39.48 19.376 35.704C19.376 31.9493 20.08 29.0907 21.488 27.128C22.896 25.144 24.9333 24.152 27.6 24.152C30.2667 24.152 32.304 25.144 33.712 27.128C35.12 29.0907 35.824 31.9493 35.824 35.704C35.824 39.4587 35.12 42.328 33.712 44.312C32.304 46.296 30.2667 47.288 27.6 47.288ZM27.6 44.056C29.0507 44.056 30.1067 43.3947 30.768 42.072C31.4293 40.728 31.76 38.6053 31.76 35.704C31.76 32.7813 31.4293 30.6693 30.768 29.368C30.1067 28.0453 29.0507 27.384 27.6 27.384C26.1493 27.384 25.0933 28.0453 24.432 29.368C23.7707 30.6907 23.44 32.8027 23.44 35.704C23.44 38.6053 23.7707 40.728 24.432 42.072C25.0933 43.3947 26.1493 44.056 27.6 44.056ZM50.2435 35.416C51.5875 35.7573 52.6115 36.408 53.3155 37.368C54.0408 38.3067 54.4035 39.48 54.4035 40.888C54.4035 42.8293 53.6888 44.376 52.2595 45.528C50.8302 46.68 48.8995 47.256 46.4675 47.256C45.0808 47.256 43.7475 47.0427 42.4675 46.616C41.1875 46.1893 40.0995 45.592 39.2035 44.824C38.7128 44.3973 38.4675 43.896 38.4675 43.32C38.4675 42.8507 38.5955 42.456 38.8515 42.136C39.1288 41.7947 39.4488 41.624 39.8115 41.624C40.0248 41.624 40.2168 41.6667 40.3875 41.752C40.5582 41.816 40.7928 41.9333 41.0915 42.104C41.9875 42.7013 42.8408 43.16 43.6515 43.48C44.4622 43.8 45.3475 43.96 46.3075 43.96C47.7155 43.96 48.7608 43.6827 49.4435 43.128C50.1262 42.552 50.4675 41.688 50.4675 40.536C50.4675 39.4053 50.1048 38.5733 49.3795 38.04C48.6755 37.4853 47.5768 37.208 46.0835 37.208H44.2595C43.7688 37.208 43.3848 37.048 43.1075 36.728C42.8515 36.3867 42.7235 36.0027 42.7235 35.576C42.7235 35.128 42.8515 34.744 43.1075 34.424C43.3848 34.104 43.7688 33.944 44.2595 33.944H45.5395C48.4622 33.944 49.9235 32.8453 49.9235 30.648C49.9235 29.624 49.6142 28.8347 48.9955 28.28C48.3768 27.7253 47.5235 27.448 46.4355 27.448C44.8782 27.448 43.2142 28.0667 41.4435 29.304C41.1448 29.4747 40.9102 29.6027 40.7395 29.688C40.5688 29.752 40.3768 29.784 40.1635 29.784C39.8008 29.784 39.4808 29.624 39.2035 29.304C38.9475 28.9627 38.8195 28.5573 38.8195 28.088C38.8195 27.768 38.8728 27.5013 38.9795 27.288C39.1075 27.0533 39.2995 26.8187 39.5555 26.584C40.4515 25.8373 41.5182 25.2507 42.7555 24.824C44.0142 24.376 45.2942 24.152 46.5955 24.152C48.8142 24.152 50.5742 24.696 51.8755 25.784C53.1982 26.872 53.8595 28.3227 53.8595 30.136C53.8382 31.3733 53.5075 32.4613 52.8675 33.4C52.2488 34.3173 51.3742 34.9893 50.2435 35.416Z" fill="white"/>
</svg>
