<svg width="317" height="37" viewBox="0 0 317 37" fill="none" xmlns="http://www.w3.org/2000/svg">
<rect x="-0.5" y="0.5" width="36" height="36" rx="18" transform="matrix(-1 0 0 1 36 0)" stroke="#BDBDBD"/>
<path d="M15.4062 18.5L20.4146 13.4916L21.5938 14.6691L17.7604 18.5L21.5938 22.33L20.4154 23.5083L15.4062 18.5Z" fill="#8C8C8C"/>
<rect x="51.5" y="0.5" width="36" height="36" rx="18" stroke="#BDBDBD"/>
<path d="M72.1155 21.148C72.6355 21.148 72.8955 21.369 72.8955 21.811C72.8955 22.2703 72.6355 22.5 72.1155 22.5H67.7215C67.1929 22.5 66.9285 22.2703 66.9285 21.811C66.9285 21.369 67.1929 21.148 67.7215 21.148H69.0735V15.22L67.8255 15.987C67.7042 16.0563 67.5959 16.091 67.5005 16.091C67.3185 16.091 67.1625 16.013 67.0325 15.857C66.9112 15.701 66.8505 15.5277 66.8505 15.337C66.8505 15.0857 66.9632 14.8907 67.1885 14.752L69.2035 13.504C69.4635 13.348 69.7105 13.27 69.9445 13.27C70.1872 13.27 70.3822 13.3437 70.5295 13.491C70.6769 13.6383 70.7505 13.842 70.7505 14.102V21.148H72.1155Z" fill="#8C8C8C"/>
<rect x="102" width="38" height="37" rx="18.5" fill="#356C07"/>
<path d="M123.57 21.648C124.09 21.648 124.35 21.869 124.35 22.311C124.35 22.7703 124.09 23 123.57 23H118.63C118.405 23 118.227 22.935 118.097 22.805C117.967 22.6663 117.902 22.4973 117.902 22.298C117.902 22.038 118.002 21.804 118.201 21.596L121.165 18.411C121.529 18.0123 121.794 17.6483 121.958 17.319C122.132 16.981 122.218 16.6473 122.218 16.318C122.218 15.9107 122.101 15.5987 121.867 15.382C121.633 15.1653 121.3 15.057 120.866 15.057C120.511 15.057 120.164 15.1263 119.826 15.265C119.497 15.395 119.163 15.577 118.825 15.811C118.739 15.8717 118.652 15.9237 118.565 15.967C118.479 16.0017 118.392 16.019 118.305 16.019C118.158 16.019 118.028 15.9497 117.915 15.811C117.811 15.6723 117.759 15.5077 117.759 15.317C117.759 15.187 117.781 15.0743 117.824 14.979C117.876 14.8837 117.954 14.7927 118.058 14.706C118.44 14.4027 118.886 14.1643 119.397 13.991C119.909 13.809 120.42 13.718 120.931 13.718C121.824 13.718 122.535 13.9433 123.063 14.394C123.601 14.8447 123.869 15.4513 123.869 16.214C123.869 16.7427 123.757 17.241 123.531 17.709C123.306 18.1683 122.925 18.684 122.387 19.256L120.138 21.648H123.57Z" fill="white"/>
<rect x="154.5" y="0.5" width="36" height="36" rx="18" stroke="#BDBDBD"/>
<path d="M173.907 17.794C174.453 17.9327 174.869 18.197 175.155 18.587C175.449 18.9683 175.597 19.445 175.597 20.017C175.597 20.8057 175.306 21.434 174.726 21.902C174.145 22.37 173.361 22.604 172.373 22.604C171.809 22.604 171.268 22.5173 170.748 22.344C170.228 22.1707 169.786 21.928 169.422 21.616C169.222 21.4427 169.123 21.239 169.123 21.005C169.123 20.8143 169.175 20.654 169.279 20.524C169.391 20.3853 169.521 20.316 169.669 20.316C169.755 20.316 169.833 20.3333 169.903 20.368C169.972 20.394 170.067 20.4417 170.189 20.511C170.553 20.7537 170.899 20.94 171.229 21.07C171.558 21.2 171.918 21.265 172.308 21.265C172.88 21.265 173.304 21.1523 173.582 20.927C173.859 20.693 173.998 20.342 173.998 19.874C173.998 19.4147 173.85 19.0767 173.556 18.86C173.27 18.6347 172.823 18.522 172.217 18.522H171.476C171.276 18.522 171.12 18.457 171.008 18.327C170.904 18.1883 170.852 18.0323 170.852 17.859C170.852 17.677 170.904 17.521 171.008 17.391C171.12 17.261 171.276 17.196 171.476 17.196H171.996C173.183 17.196 173.777 16.7497 173.777 15.857C173.777 15.441 173.651 15.1203 173.4 14.895C173.148 14.6697 172.802 14.557 172.36 14.557C171.727 14.557 171.051 14.8083 170.332 15.311C170.21 15.3803 170.115 15.4323 170.046 15.467C169.976 15.493 169.898 15.506 169.812 15.506C169.664 15.506 169.534 15.441 169.422 15.311C169.318 15.1723 169.266 15.0077 169.266 14.817C169.266 14.687 169.287 14.5787 169.331 14.492C169.383 14.3967 169.461 14.3013 169.565 14.206C169.929 13.9027 170.362 13.6643 170.865 13.491C171.376 13.309 171.896 13.218 172.425 13.218C173.326 13.218 174.041 13.439 174.57 13.881C175.107 14.323 175.376 14.9123 175.376 15.649C175.367 16.1517 175.233 16.5937 174.973 16.975C174.721 17.3477 174.366 17.6207 173.907 17.794Z" fill="#8C8C8C"/>
<path d="M206.811 19.07C206.587 19.07 206.401 19 206.251 18.86C206.102 18.7107 206.027 18.5193 206.027 18.286C206.027 18.0527 206.102 17.8613 206.251 17.712C206.401 17.5627 206.587 17.488 206.811 17.488C207.026 17.488 207.203 17.5627 207.343 17.712C207.493 17.8613 207.567 18.0527 207.567 18.286C207.567 18.5193 207.493 18.7107 207.343 18.86C207.203 19 207.026 19.07 206.811 19.07ZM210.01 19.07C209.786 19.07 209.6 19 209.45 18.86C209.301 18.7107 209.226 18.5193 209.226 18.286C209.226 18.0527 209.301 17.8613 209.45 17.712C209.6 17.5627 209.786 17.488 210.01 17.488C210.225 17.488 210.402 17.5627 210.542 17.712C210.692 17.8613 210.766 18.0527 210.766 18.286C210.766 18.5193 210.692 18.7107 210.542 18.86C210.402 19 210.225 19.07 210.01 19.07ZM213.21 19.07C212.986 19.07 212.799 19 212.65 18.86C212.5 18.7107 212.426 18.5193 212.426 18.286C212.426 18.0527 212.5 17.8613 212.65 17.712C212.799 17.5627 212.986 17.488 213.21 17.488C213.424 17.488 213.602 17.5627 213.742 17.712C213.891 17.8613 213.966 18.0527 213.966 18.286C213.966 18.5193 213.891 18.7107 213.742 18.86C213.602 19 213.424 19.07 213.21 19.07Z" fill="#BDBDBD"/>
<rect x="229.5" y="0.5" width="36" height="36" rx="18" stroke="#BDBDBD"/>
<path d="M246.218 21.148C246.738 21.148 246.998 21.369 246.998 21.811C246.998 22.2703 246.738 22.5 246.218 22.5H241.824C241.295 22.5 241.031 22.2703 241.031 21.811C241.031 21.369 241.295 21.148 241.824 21.148H243.176V15.22L241.928 15.987C241.807 16.0563 241.698 16.091 241.603 16.091C241.421 16.091 241.265 16.013 241.135 15.857C241.014 15.701 240.953 15.5277 240.953 15.337C240.953 15.0857 241.066 14.8907 241.291 14.752L243.306 13.504C243.566 13.348 243.813 13.27 244.047 13.27C244.29 13.27 244.485 13.3437 244.632 13.491C244.779 13.6383 244.853 13.842 244.853 14.102V21.148H246.218ZM251.881 16.637C252.453 16.637 252.956 16.7627 253.389 17.014C253.831 17.2567 254.173 17.599 254.416 18.041C254.659 18.483 254.78 18.99 254.78 19.562C254.78 20.16 254.641 20.6887 254.364 21.148C254.095 21.6073 253.71 21.967 253.207 22.227C252.713 22.4783 252.141 22.604 251.491 22.604C250.954 22.604 250.425 22.5173 249.905 22.344C249.394 22.162 248.956 21.9193 248.592 21.616C248.393 21.4427 248.293 21.239 248.293 21.005C248.293 20.8143 248.345 20.654 248.449 20.524C248.562 20.3853 248.692 20.316 248.839 20.316C248.926 20.316 249.008 20.3333 249.086 20.368C249.164 20.394 249.255 20.4417 249.359 20.511C249.706 20.7537 250.044 20.94 250.373 21.07C250.702 21.2 251.053 21.265 251.426 21.265C251.998 21.265 252.436 21.122 252.739 20.836C253.042 20.55 253.194 20.1427 253.194 19.614C253.194 19.1027 253.038 18.6997 252.726 18.405C252.423 18.1017 252.002 17.95 251.465 17.95C251.127 17.95 250.824 17.9977 250.555 18.093C250.295 18.1883 250.026 18.3487 249.749 18.574C249.584 18.6867 249.415 18.743 249.242 18.743C249.069 18.743 248.921 18.691 248.8 18.587C248.679 18.483 248.618 18.3443 248.618 18.171V14.115C248.618 13.8723 248.687 13.6817 248.826 13.543C248.965 13.4043 249.16 13.335 249.411 13.335H253.74C254.26 13.335 254.52 13.5517 254.52 13.985C254.52 14.4183 254.26 14.635 253.74 14.635H250.256V17.105C250.698 16.793 251.24 16.637 251.881 16.637Z" fill="#8C8C8C"/>
<rect x="280.5" y="0.5" width="36" height="36" rx="18" stroke="#BDBDBD"/>
<path d="M301.594 18.5L296.585 13.4916L295.406 14.6691L299.24 18.5L295.406 22.33L296.585 23.5083L301.594 18.5Z" fill="#8C8C8C"/>
</svg>
