<svg width="160" height="52" viewBox="0 0 160 52" fill="none" xmlns="http://www.w3.org/2000/svg">
<path d="M51.76 27.056C51.8667 27.1733 51.92 27.3067 51.92 27.456C51.92 27.6267 51.856 27.7707 51.728 27.888C51.6 28.0053 51.4507 28.064 51.28 28.064C51.1093 28.064 50.9547 27.9893 50.816 27.84L47.168 23.184L43.504 27.84C43.3867 27.9893 43.232 28.064 43.04 28.064C42.88 28.064 42.736 28.0053 42.608 27.888C42.48 27.76 42.416 27.616 42.416 27.456C42.416 27.296 42.464 27.1627 42.56 27.056L46.4 22.24L42.768 17.664C42.6613 17.5467 42.608 17.408 42.608 17.248C42.608 17.088 42.6667 16.9493 42.784 16.832C42.912 16.7147 43.056 16.656 43.216 16.656C43.3973 16.656 43.552 16.736 43.68 16.896L47.168 21.312L50.64 16.896C50.768 16.736 50.9227 16.656 51.104 16.656C51.264 16.656 51.408 16.72 51.536 16.848C51.664 16.9653 51.728 17.1093 51.728 17.28C51.728 17.4293 51.68 17.5573 51.584 17.664L47.936 22.24L51.76 27.056ZM59.482 26.192C59.5993 26.192 59.7007 26.24 59.786 26.336C59.8713 26.432 59.914 26.5547 59.914 26.704C59.914 26.9707 59.7273 27.216 59.354 27.44C58.97 27.664 58.5647 27.8347 58.138 27.952C57.7113 28.0587 57.2953 28.112 56.89 28.112C55.6847 28.112 54.73 27.7547 54.026 27.04C53.3327 26.3253 52.986 25.3387 52.986 24.08C52.986 23.28 53.1407 22.576 53.45 21.968C53.7593 21.3493 54.1913 20.8693 54.746 20.528C55.3113 20.1867 55.9513 20.016 56.666 20.016C57.6793 20.016 58.4847 20.3467 59.082 21.008C59.6793 21.6693 59.978 22.5653 59.978 23.696C59.978 23.9093 59.9353 24.064 59.85 24.16C59.7647 24.256 59.626 24.304 59.434 24.304H54.282C54.378 26.1387 55.2473 27.056 56.89 27.056C57.306 27.056 57.6633 27.0027 57.962 26.896C58.2607 26.7787 58.5807 26.624 58.922 26.432C59.1993 26.272 59.386 26.192 59.482 26.192ZM56.682 21.024C55.9993 21.024 55.45 21.2373 55.034 21.664C54.6287 22.0907 54.3887 22.6933 54.314 23.472H58.842C58.8207 22.6827 58.6233 22.08 58.25 21.664C57.8767 21.2373 57.354 21.024 56.682 21.024ZM70.5595 20.016C72.2875 20.016 73.1515 21.0453 73.1515 23.104V27.44C73.1515 27.6427 73.0928 27.8027 72.9755 27.92C72.8582 28.0267 72.7035 28.08 72.5115 28.08C72.3195 28.08 72.1595 28.0267 72.0315 27.92C71.9142 27.8027 71.8555 27.6427 71.8555 27.44V23.136C71.8555 22.4213 71.7275 21.904 71.4715 21.584C71.2155 21.264 70.8155 21.104 70.2715 21.104C69.6208 21.104 69.1088 21.3227 68.7355 21.76C68.3622 22.1973 68.1755 22.7893 68.1755 23.536V27.44C68.1755 27.6427 68.1115 27.8027 67.9835 27.92C67.8662 28.0267 67.7115 28.08 67.5195 28.08C67.3275 28.08 67.1728 28.0267 67.0555 27.92C66.9382 27.8027 66.8795 27.6427 66.8795 27.44V23.136C66.8795 22.4213 66.7515 21.904 66.4955 21.584C66.2395 21.264 65.8342 21.104 65.2795 21.104C64.6395 21.104 64.1275 21.3227 63.7435 21.76C63.3702 22.1973 63.1835 22.7893 63.1835 23.536V27.44C63.1835 27.6427 63.1248 27.8027 63.0075 27.92C62.8902 28.0267 62.7355 28.08 62.5435 28.08C62.3515 28.08 62.1915 28.0267 62.0635 27.92C61.9462 27.8027 61.8875 27.6427 61.8875 27.44V20.688C61.8875 20.496 61.9462 20.3413 62.0635 20.224C62.1915 20.1067 62.3515 20.048 62.5435 20.048C62.7248 20.048 62.8742 20.1067 62.9915 20.224C63.1088 20.3307 63.1675 20.48 63.1675 20.672V21.44C63.4022 20.9813 63.7275 20.6293 64.1435 20.384C64.5595 20.1387 65.0395 20.016 65.5835 20.016C66.7995 20.016 67.5942 20.528 67.9675 21.552C68.1915 21.0827 68.5328 20.7093 68.9915 20.432C69.4502 20.1547 69.9728 20.016 70.5595 20.016ZM83.2375 27.056C83.6108 27.088 83.7975 27.2587 83.7975 27.568C83.7975 27.7493 83.7282 27.888 83.5895 27.984C83.4615 28.0693 83.2642 28.1013 82.9975 28.08L82.5655 28.048C81.7122 27.984 81.0828 27.728 80.6775 27.28C80.2722 26.832 80.0695 26.1547 80.0695 25.248V21.232H78.9975C78.8162 21.232 78.6722 21.1893 78.5655 21.104C78.4695 21.008 78.4215 20.8853 78.4215 20.736C78.4215 20.576 78.4695 20.448 78.5655 20.352C78.6722 20.256 78.8162 20.208 78.9975 20.208H80.0695V18.4C80.0695 18.1973 80.1282 18.0427 80.2455 17.936C80.3628 17.8187 80.5228 17.76 80.7255 17.76C80.9175 17.76 81.0722 17.8187 81.1895 17.936C81.3068 18.0427 81.3655 18.1973 81.3655 18.4V20.208H83.1415C83.3122 20.208 83.4455 20.256 83.5415 20.352C83.6482 20.448 83.7015 20.576 83.7015 20.736C83.7015 20.8853 83.6482 21.008 83.5415 21.104C83.4455 21.1893 83.3122 21.232 83.1415 21.232H81.3655V25.312C81.3655 25.8987 81.4828 26.3253 81.7175 26.592C81.9628 26.848 82.3255 26.992 82.8055 27.024L83.2375 27.056ZM88.259 20.016C90.211 20.016 91.187 21.04 91.187 23.088V27.44C91.187 27.632 91.1283 27.7867 91.011 27.904C90.9043 28.0213 90.755 28.08 90.563 28.08C90.371 28.08 90.2163 28.0213 90.099 27.904C89.9817 27.7867 89.923 27.632 89.923 27.44V26.672C89.7203 27.1307 89.411 27.488 88.995 27.744C88.579 27.9893 88.099 28.112 87.555 28.112C87.0537 28.112 86.5897 28.0107 86.163 27.808C85.747 27.6053 85.4163 27.3227 85.171 26.96C84.9257 26.5973 84.803 26.1973 84.803 25.76C84.803 25.1733 84.9523 24.72 85.251 24.4C85.5497 24.0693 86.0403 23.8347 86.723 23.696C87.4057 23.5467 88.355 23.472 89.571 23.472H89.923V22.944C89.923 22.304 89.7897 21.8347 89.523 21.536C89.267 21.2373 88.8457 21.088 88.259 21.088C87.5337 21.088 86.7977 21.2853 86.051 21.68C85.763 21.8613 85.5603 21.952 85.443 21.952C85.315 21.952 85.2083 21.904 85.123 21.808C85.0377 21.712 84.995 21.5893 84.995 21.44C84.995 21.2907 85.0377 21.1627 85.123 21.056C85.219 20.9387 85.3683 20.8213 85.571 20.704C85.9443 20.4907 86.3657 20.3253 86.835 20.208C87.315 20.08 87.7897 20.016 88.259 20.016ZM87.731 27.088C88.371 27.088 88.8937 26.8747 89.299 26.448C89.715 26.0107 89.923 25.4507 89.923 24.768V24.304H89.635C88.6963 24.304 87.9817 24.3467 87.491 24.432C87.0003 24.5067 86.6483 24.64 86.435 24.832C86.2323 25.0133 86.131 25.2853 86.131 25.648C86.131 26.064 86.2803 26.4107 86.579 26.688C86.8883 26.9547 87.2723 27.088 87.731 27.088ZM90.275 17.536C90.2217 17.5787 90.1523 17.6 90.067 17.6C89.971 17.6 89.8857 17.568 89.811 17.504C89.747 17.4293 89.715 17.344 89.715 17.248C89.715 17.1627 89.7417 17.088 89.795 17.024L91.011 15.472C91.171 15.2693 91.347 15.168 91.539 15.168C91.699 15.168 91.8323 15.2267 91.939 15.344C92.0563 15.4507 92.115 15.5787 92.115 15.728C92.115 15.952 92.003 16.144 91.779 16.304L90.275 17.536ZM86.883 19.104C86.7763 19.2 86.6643 19.248 86.547 19.248C86.419 19.248 86.307 19.2053 86.211 19.12C86.115 19.024 86.067 18.912 86.067 18.784C86.067 18.6453 86.1363 18.512 86.275 18.384L87.667 16.992C87.8483 16.8213 88.0457 16.736 88.259 16.736C88.451 16.736 88.6483 16.8213 88.851 16.992L90.243 18.384C90.3817 18.512 90.451 18.6453 90.451 18.784C90.451 18.912 90.403 19.024 90.307 19.12C90.211 19.2053 90.1043 19.248 89.987 19.248C89.859 19.248 89.747 19.2 89.651 19.104L88.259 17.632L86.883 19.104ZM97.1594 27.056C97.5327 27.088 97.7194 27.2587 97.7194 27.568C97.7194 27.7493 97.65 27.888 97.5114 27.984C97.3834 28.0693 97.186 28.1013 96.9194 28.08L96.4874 28.048C95.634 27.984 95.0047 27.728 94.5994 27.28C94.194 26.832 93.9914 26.1547 93.9914 25.248V21.232H92.9194C92.738 21.232 92.594 21.1893 92.4874 21.104C92.3914 21.008 92.3434 20.8853 92.3434 20.736C92.3434 20.576 92.3914 20.448 92.4874 20.352C92.594 20.256 92.738 20.208 92.9194 20.208H93.9914V18.4C93.9914 18.1973 94.05 18.0427 94.1674 17.936C94.2847 17.8187 94.4447 17.76 94.6474 17.76C94.8394 17.76 94.994 17.8187 95.1114 17.936C95.2287 18.0427 95.2874 18.1973 95.2874 18.4V20.208H97.0634C97.234 20.208 97.3674 20.256 97.4634 20.352C97.57 20.448 97.6234 20.576 97.6234 20.736C97.6234 20.8853 97.57 21.008 97.4634 21.104C97.3674 21.1893 97.234 21.232 97.0634 21.232H95.2874V25.312C95.2874 25.8987 95.4047 26.3253 95.6394 26.592C95.8847 26.848 96.2474 26.992 96.7274 27.024L97.1594 27.056ZM106.338 28.112C105.613 28.112 104.967 27.9467 104.402 27.616C103.847 27.2853 103.415 26.816 103.106 26.208C102.807 25.6 102.658 24.896 102.658 24.096C102.658 23.296 102.813 22.5867 103.122 21.968C103.442 21.3493 103.885 20.8693 104.45 20.528C105.015 20.1867 105.666 20.016 106.402 20.016C106.807 20.016 107.207 20.0747 107.602 20.192C108.007 20.2987 108.359 20.4587 108.658 20.672C108.85 20.8 108.983 20.928 109.058 21.056C109.143 21.1733 109.186 21.3067 109.186 21.456C109.186 21.6053 109.143 21.728 109.058 21.824C108.983 21.92 108.882 21.968 108.754 21.968C108.679 21.968 108.599 21.9467 108.514 21.904C108.429 21.8613 108.354 21.8187 108.29 21.776C108.237 21.7333 108.199 21.7067 108.178 21.696C107.901 21.5147 107.634 21.3707 107.378 21.264C107.133 21.1573 106.829 21.104 106.466 21.104C105.687 21.104 105.079 21.3707 104.642 21.904C104.215 22.4267 104.002 23.1573 104.002 24.096C104.002 25.0347 104.215 25.76 104.642 26.272C105.079 26.784 105.687 27.04 106.466 27.04C106.829 27.04 107.138 26.9867 107.394 26.88C107.661 26.7733 107.927 26.6293 108.194 26.448C108.311 26.3733 108.423 26.3093 108.53 26.256C108.637 26.2027 108.727 26.176 108.802 26.176C108.919 26.176 109.015 26.224 109.09 26.32C109.175 26.416 109.218 26.5387 109.218 26.688C109.218 26.8267 109.181 26.9547 109.106 27.072C109.031 27.1787 108.893 27.3013 108.69 27.44C108.391 27.6427 108.029 27.808 107.602 27.936C107.186 28.0533 106.765 28.112 106.338 28.112ZM113.962 20.016C115.914 20.016 116.89 21.04 116.89 23.088V27.44C116.89 27.632 116.831 27.7867 116.714 27.904C116.607 28.0213 116.458 28.08 116.266 28.08C116.074 28.08 115.919 28.0213 115.802 27.904C115.685 27.7867 115.626 27.632 115.626 27.44V26.672C115.423 27.1307 115.114 27.488 114.698 27.744C114.282 27.9893 113.802 28.112 113.258 28.112C112.757 28.112 112.293 28.0107 111.866 27.808C111.45 27.6053 111.119 27.3227 110.874 26.96C110.629 26.5973 110.506 26.1973 110.506 25.76C110.506 25.1733 110.655 24.72 110.954 24.4C111.253 24.0693 111.743 23.8347 112.426 23.696C113.109 23.5467 114.058 23.472 115.274 23.472H115.626V22.944C115.626 22.304 115.493 21.8347 115.226 21.536C114.97 21.2373 114.549 21.088 113.962 21.088C113.237 21.088 112.501 21.2853 111.754 21.68C111.466 21.8613 111.263 21.952 111.146 21.952C111.018 21.952 110.911 21.904 110.826 21.808C110.741 21.712 110.698 21.5893 110.698 21.44C110.698 21.2907 110.741 21.1627 110.826 21.056C110.922 20.9387 111.071 20.8213 111.274 20.704C111.647 20.4907 112.069 20.3253 112.538 20.208C113.018 20.08 113.493 20.016 113.962 20.016ZM113.434 27.088C114.074 27.088 114.597 26.8747 115.002 26.448C115.418 26.0107 115.626 25.4507 115.626 24.768V24.304H115.338C114.399 24.304 113.685 24.3467 113.194 24.432C112.703 24.5067 112.351 24.64 112.138 24.832C111.935 25.0133 111.834 25.2853 111.834 25.648C111.834 26.064 111.983 26.4107 112.282 26.688C112.591 26.9547 112.975 27.088 113.434 27.088ZM114.41 18.848C114.399 18.976 114.351 19.0773 114.266 19.152C114.191 19.2267 114.101 19.264 113.994 19.264C113.877 19.264 113.775 19.2213 113.69 19.136C113.605 19.04 113.562 18.912 113.562 18.752C113.562 18.5387 113.615 18.3573 113.722 18.208C113.829 18.048 113.983 17.872 114.186 17.68C114.335 17.5307 114.437 17.4187 114.49 17.344C114.554 17.2693 114.586 17.184 114.586 17.088C114.586 16.96 114.527 16.864 114.41 16.8C114.303 16.7253 114.149 16.688 113.946 16.688C113.711 16.688 113.445 16.736 113.146 16.832C113.114 16.8427 113.066 16.848 113.002 16.848C112.895 16.848 112.81 16.816 112.746 16.752C112.693 16.6773 112.666 16.592 112.666 16.496C112.666 16.3147 112.757 16.1867 112.938 16.112C113.29 15.9627 113.647 15.888 114.01 15.888C114.522 15.888 114.922 15.9947 115.21 16.208C115.498 16.4107 115.642 16.672 115.642 16.992C115.642 17.2267 115.589 17.4187 115.482 17.568C115.375 17.7067 115.21 17.872 114.986 18.064C114.815 18.192 114.682 18.3147 114.586 18.432C114.49 18.5493 114.431 18.688 114.41 18.848Z" fill="#356C07"/>
<rect x="0.5" y="0.5" width="159" height="44" stroke="#356C07"/>
<line y1="51.5" x2="159" y2="51.5" stroke="#356C07"/>
</svg>
